<?xml version="1.0" encoding="iso-8859-1"?>
<!-- Generator: Adobe Illustrator 16.0.0, SVG Export Plug-In . SVG Version: 6.00 Build 0)  -->
<!DOCTYPE svg PUBLIC "-//W3C//DTD SVG 1.1//EN" "http://www.w3.org/Graphics/SVG/1.1/DTD/svg11.dtd">
<svg version="1.1" xmlns="http://www.w3.org/2000/svg" xmlns:xlink="http://www.w3.org/1999/xlink" x="0px" y="0px" width="370px"
	 height="180px" viewBox="0 0 370 180" style="enable-background:new 0 0 370 180;" xml:space="preserve">
<g id="ico_x5F_kategoria_x5F_zabawki">
	<g>
		<g>
			<path style="fill:none;stroke:#FFFFFF;stroke-width:3;stroke-miterlimit:10;" d="M205.693,122.58h-41.797
				c-1.61,0-2.915-1.304-2.915-2.914V89.299c0-1.61,1.304-2.915,2.915-2.915h41.799c1.608,0,2.916,1.305,2.916,2.915v30.367
				C208.609,121.277,207.304,122.58,205.693,122.58z"/>
			
				<rect x="174.317" y="76.858" style="fill:none;stroke:#FFFFFF;stroke-width:3;stroke-miterlimit:10;" width="20.957" height="9.526"/>
			<path style="fill:none;stroke:#FFFFFF;stroke-width:3;stroke-miterlimit:10;" d="M200.988,76.858h-32.386V55.175
				c0-2.756,2.233-4.99,4.989-4.99h22.408c2.756,0,4.989,2.234,4.989,4.99V76.858z"/>
			<path style="fill:none;stroke:#FFFFFF;stroke-width:3;stroke-miterlimit:10;" d="M180.032,57.806
				c0,1.051-0.854,1.905-1.904,1.905c-1.052,0-1.906-0.854-1.906-1.905c0-1.052,0.854-1.905,1.906-1.905
				C179.179,55.901,180.032,56.754,180.032,57.806"/>
			<path style="fill:none;stroke:#FFFFFF;stroke-width:3;stroke-miterlimit:10;" d="M193.367,57.806
				c0,1.051-0.854,1.905-1.903,1.905c-1.052,0-1.905-0.854-1.905-1.905c0-1.052,0.854-1.905,1.905-1.905
				C192.515,55.901,193.367,56.754,193.367,57.806"/>
			<polygon style="fill:none;stroke:#FFFFFF;stroke-width:3;stroke-miterlimit:10;" points="168.602,73.047 162.886,71.142 
				162.886,59.711 168.602,57.806 			"/>
			<polygon style="fill:none;stroke:#FFFFFF;stroke-width:3;stroke-miterlimit:10;" points="200.988,73.047 206.704,71.142 
				206.704,59.711 200.988,57.806 			"/>
			<path style="fill:none;stroke:#FFFFFF;stroke-width:3;stroke-miterlimit:10;" d="M136.214,126.391h7.62
				c0-12.605,4.54-22.86,17.147-22.86v-7.621C144.173,95.909,136.214,109.584,136.214,126.391z"/>
			<circle style="fill:none;stroke:#FFFFFF;stroke-width:3;stroke-miterlimit:10;" cx="174.317" cy="103.53" r="7.621"/>
			
				<line style="fill:none;stroke:#FFFFFF;stroke-width:3;stroke-miterlimit:10;" x1="189.559" y1="111.151" x2="202.895" y2="111.151"/>
			
				<line style="fill:none;stroke:#FFFFFF;stroke-width:3;stroke-miterlimit:10;" x1="191.464" y1="103.53" x2="202.895" y2="103.53"/>
			
				<line style="fill:none;stroke:#FFFFFF;stroke-width:3;stroke-miterlimit:10;" x1="191.464" y1="95.909" x2="202.895" y2="95.909"/>
			<path style="fill:none;stroke:#FFFFFF;stroke-width:3;stroke-miterlimit:10;" d="M134.313,143.542
				c-2.315-1.738-3.813-4.507-3.813-7.625c0-5.262,4.264-9.526,9.526-9.526c5.259,0,9.525,4.266,9.525,9.526
				c0,3.118-1.498,5.883-3.81,7.62"/>
			<path style="fill:none;stroke:#FFFFFF;stroke-width:3;stroke-miterlimit:10;" d="M233.376,126.391h-7.619
				c0-12.605-4.54-22.86-17.146-22.86v-7.621C225.418,95.909,233.376,109.584,233.376,126.391z"/>
			<path style="fill:none;stroke:#FFFFFF;stroke-width:3;stroke-miterlimit:10;" d="M235.277,143.542
				c2.314-1.738,3.814-4.507,3.814-7.625c0-5.262-4.264-9.526-9.525-9.526c-5.261,0-9.526,4.266-9.526,9.526
				c0,3.118,1.496,5.883,3.812,7.62"/>
			<path style="fill:none;stroke:#FFFFFF;stroke-width:3;stroke-miterlimit:10;" d="M178.128,158.78h-17.427
				c-1.949,0-3.53-1.582-3.53-3.53v-2.464c0-1.951,1.582-3.533,3.53-3.533h17.427V158.78z"/>
			<path style="fill:none;stroke:#FFFFFF;stroke-width:3;stroke-miterlimit:10;" d="M208.891,158.78h-17.427v-9.527h17.427
				c1.948,0,3.53,1.582,3.53,3.533v2.464C212.421,157.198,210.839,158.78,208.891,158.78z"/>
			<path style="fill:none;stroke:#FFFFFF;stroke-width:3;stroke-miterlimit:10;" d="M191.464,65.427
				c0,3.684-2.985,5.715-6.668,5.715c-3.684,0-6.668-2.031-6.668-5.715"/>
			
				<rect x="159.076" y="130.203" style="fill:none;stroke:#FFFFFF;stroke-width:3;stroke-miterlimit:10;" width="11.431" height="9.525"/>
			
				<rect x="199.084" y="130.203" style="fill:none;stroke:#FFFFFF;stroke-width:3;stroke-miterlimit:10;" width="11.432" height="9.525"/>
			<polygon style="fill:none;stroke:#FFFFFF;stroke-width:3;stroke-miterlimit:10;" points="199.084,139.729 199.084,130.203 
				204.8,130.203 204.8,122.58 191.464,122.58 191.464,149.252 204.8,149.252 204.8,139.729 			"/>
			<polygon style="fill:none;stroke:#FFFFFF;stroke-width:3;stroke-miterlimit:10;" points="164.791,122.58 164.791,130.203 
				170.507,130.203 170.507,139.729 164.791,139.729 164.791,149.252 178.128,149.252 178.128,122.58 			"/>
			
				<line style="fill:none;stroke:#FFFFFF;stroke-width:3;stroke-miterlimit:10;" x1="162.886" y1="65.427" x2="153.36" y2="65.427"/>
			
				<line style="fill:none;stroke:#FFFFFF;stroke-width:3;stroke-miterlimit:10;" x1="216.23" y1="65.427" x2="206.704" y2="65.427"/>
			<circle style="fill:none;stroke:#FFFFFF;stroke-width:3;stroke-miterlimit:10;" cx="221.945" cy="65.427" r="5.715"/>
			<circle style="fill:none;stroke:#FFFFFF;stroke-width:3;stroke-miterlimit:10;" cx="147.645" cy="65.427" r="5.715"/>
			
				<line style="fill:none;stroke:#FFFFFF;stroke-width:3;stroke-miterlimit:10;" x1="134.171" y1="41.969" x2="141.91" y2="49.708"/>
			<line style="fill:none;stroke:#FFFFFF;stroke-width:3;stroke-miterlimit:10;" x1="184.795" y1="21" x2="184.795" y2="31.946"/>
			
				<line style="fill:none;stroke:#FFFFFF;stroke-width:3;stroke-miterlimit:10;" x1="235.42" y1="41.969" x2="227.681" y2="49.708"/>
		</g>
	</g>
</g>
<g id="Warstwa_1">
</g>
</svg>
