<?xml version="1.0" encoding="iso-8859-1"?>
<!-- Generator: Adobe Illustrator 16.0.0, SVG Export Plug-In . SVG Version: 6.00 Build 0)  -->
<!DOCTYPE svg PUBLIC "-//W3C//DTD SVG 1.1//EN" "http://www.w3.org/Graphics/SVG/1.1/DTD/svg11.dtd">
<svg version="1.1" xmlns="http://www.w3.org/2000/svg" xmlns:xlink="http://www.w3.org/1999/xlink" x="0px" y="0px" width="370px"
	 height="180px" viewBox="0 0 370 180" style="enable-background:new 0 0 370 180;" xml:space="preserve">
<g id="ico_x5F_benefity_x5F_posilki">
	<g>
		<g>
			
				<line style="fill:none;stroke:#FFFFFF;stroke-width:3;stroke-miterlimit:10;" x1="150.257" y1="91.825" x2="148.413" y2="94.529"/>
			
				<line style="fill:none;stroke:#FFFFFF;stroke-width:3;stroke-miterlimit:10;" x1="142.113" y1="100.071" x2="139.324" y2="98.353"/>
			<line style="fill:none;stroke:#FFFFFF;stroke-width:3;stroke-miterlimit:10;" x1="153.229" y1="104" x2="153.63" y2="100.75"/>
			
				<line style="fill:none;stroke:#FFFFFF;stroke-width:3;stroke-miterlimit:10;" x1="157.938" y1="95.35" x2="161.206" y2="95.608"/>
			
				<line style="fill:none;stroke:#FFFFFF;stroke-width:3;stroke-miterlimit:10;" x1="172.136" y1="100.062" x2="170.29" y2="102.769"/>
			
				<line style="fill:none;stroke:#FFFFFF;stroke-width:3;stroke-miterlimit:10;" x1="171.048" y1="91.825" x2="168.258" y2="90.104"/>
			
				<line style="fill:none;stroke:#FFFFFF;stroke-width:3;stroke-miterlimit:10;" x1="224.83" y1="97.356" x2="222.983" y2="100.062"/>
			<line style="fill:none;stroke:#FFFFFF;stroke-width:3;stroke-miterlimit:10;" x1="217.771" y1="92.99" x2="214.982" y2="91.27"/>
			
				<line style="fill:none;stroke:#FFFFFF;stroke-width:3;stroke-miterlimit:10;" x1="180.491" y1="89.818" x2="183.756" y2="90.072"/>
			
				<line style="fill:none;stroke:#FFFFFF;stroke-width:3;stroke-miterlimit:10;" x1="206.467" y1="107.681" x2="209.731" y2="107.936"/>
			
				<line style="fill:none;stroke:#FFFFFF;stroke-width:3;stroke-miterlimit:10;" x1="185.212" y1="100.712" x2="182.05" y2="99.865"/>
			
				<line style="fill:none;stroke:#FFFFFF;stroke-width:3;stroke-miterlimit:10;" x1="197.44" y1="99.344" x2="200.563" y2="98.353"/>
			
				<line style="fill:none;stroke:#FFFFFF;stroke-width:3;stroke-miterlimit:10;" x1="194.615" y1="91.319" x2="192.296" y2="93.632"/>
			
				<line style="fill:none;stroke:#FFFFFF;stroke-width:3;stroke-miterlimit:10;" x1="210.346" y1="95.992" x2="211.183" y2="99.159"/>
			
				<line style="fill:none;stroke:#FFFFFF;stroke-width:3;stroke-miterlimit:10;" x1="201.233" y1="86.288" x2="204.498" y2="86.543"/>
			<path style="fill:none;stroke:#FFFFFF;stroke-width:3;stroke-miterlimit:10;" d="M140.645,91.115l-6.273-3.284
				c-1.151-0.604-1.598-2.038-0.995-3.187l3.285-6.276c0.606-1.149,2.038-1.594,3.188-0.995l6.275,3.289
				c1.147,0.603,1.595,2.036,0.994,3.186l-3.289,6.275C143.229,91.271,141.794,91.717,140.645,91.115z"/>
			<path style="fill:none;stroke:#FFFFFF;stroke-width:3;stroke-miterlimit:10;" d="M210.694,84.837l-1.949-6.807
				c-0.359-1.248,0.37-2.562,1.615-2.923l6.809-1.948c1.25-0.359,2.562,0.372,2.921,1.619l1.952,6.809
				c0.357,1.248-0.372,2.562-1.62,2.918l-6.809,1.951C212.365,86.815,211.053,86.087,210.694,84.837z"/>
			<path style="fill:none;stroke:#FFFFFF;stroke-width:3;stroke-miterlimit:10;" d="M173.605,68.312l-1.95-6.807
				c-0.357-1.248,0.371-2.562,1.618-2.923l6.809-1.948c1.248-0.359,2.561,0.372,2.921,1.619l1.953,6.809
				c0.354,1.248-0.374,2.562-1.621,2.918l-6.809,1.951C175.277,70.291,173.965,69.562,173.605,68.312z"/>
			<circle style="fill:none;stroke:#FFFFFF;stroke-width:3;stroke-miterlimit:10;" cx="189.767" cy="79.466" r="7.082"/>
			<circle style="fill:none;stroke:#FFFFFF;stroke-width:3;stroke-miterlimit:10;" cx="151.995" cy="70.024" r="7.082"/>
			<path style="fill:none;stroke:#FFFFFF;stroke-width:3;stroke-miterlimit:10;" d="M172.471,77.174l-9.985,11.08
				c-0.732,0.812-1.989,0.881-2.806,0.146l-2.31-2.082c-0.814-0.735-0.881-1.992-0.143-2.806l9.979-11.077
				c0.739-0.816,1.996-0.882,2.809-0.146l2.308,2.081C173.143,75.105,173.206,76.358,172.471,77.174z"/>
			<path style="fill:none;stroke:#FFFFFF;stroke-width:3;stroke-miterlimit:10;" d="M199.73,71.241l-5.121-14.003
				c-0.377-1.033,0.153-2.173,1.182-2.55l2.922-1.067c1.03-0.376,2.173,0.154,2.55,1.182l5.12,14.004
				c0.378,1.032-0.151,2.171-1.184,2.55l-2.918,1.07C201.251,72.8,200.107,72.272,199.73,71.241z"/>
			<path style="fill:none;stroke:#FFFFFF;stroke-width:3;stroke-miterlimit:10;" d="M241.833,104.378
				c-1.43-0.968-2.306-2.563-2.127-4.276c0.062-0.567,0.043-1.134-0.105-1.62c-0.545-1.794-2.066-3.232-3.897-3.657
				c-0.846-0.196-2.424-0.116-2.424-0.156c0-2.42-1.962-4.385-4.385-4.385c-0.961,0-2.191-0.41-2.191-1.095
				c0-2.92-2.291-5.284-5.171-5.447c-0.289,0.341-0.645,0.634-1.109,0.765l-6.809,1.953c-1.247,0.356-2.562-0.371-2.919-1.621
				l-1.247-4.348c-4.366-0.281-8.599-0.431-12.656-0.455c-0.295,3.643-3.309,6.515-7.027,6.515c-3.575,0-6.505-2.663-6.982-6.11
				c-5.233,0.326-10.109,0.814-14.52,1.409l-5.775,6.406c-0.732,0.816-1.989,0.881-2.806,0.146l-2.309-2.082
				c-0.763-0.688-0.841-1.818-0.25-2.63c-4.622,0.907-8.431,1.847-11.298,2.635l-1.994,3.8c-0.602,1.148-2.035,1.595-3.186,0.996
				l-5.105-2.677c-0.344,0.479-0.538,1.012-0.45,1.611c0.497,3.313-2.929,5.984-4.95,6.052c-1.662,0.058-2.169,3.479-2.088,5.138
				c0.014,0.29-4.388,1.965-4.388,4.388c0,0.653,0.146,1.269,0.401,1.824c0.053,0.108,0.062,0.229,0.102,0.341h119.936
				C243.803,106.384,242.984,105.163,241.833,104.378z"/>
			<path style="fill:none;stroke:#FFFFFF;stroke-width:3;stroke-miterlimit:10;" d="M234.62,129.042h-99.152
				c-4.309,0-3.631-6.805-6.137-10.311l-12.419-7.471c-1.038-1.452,0.002-3.467,1.784-3.467H251.31c1.781,0,2.819,2.015,1.781,3.467
				l-12.336,7.471C238.252,122.238,238.929,129.042,234.62,129.042z"/>
			<line style="fill:none;stroke:#FFFFFF;stroke-width:3;stroke-miterlimit:10;" x1="159.042" y1="119.6" x2="232.261" y2="119.6"/>
			<line style="fill:none;stroke:#FFFFFF;stroke-width:3;stroke-miterlimit:10;" x1="137.831" y1="119.6" x2="147.438" y2="119.6"/>
		</g>
	</g>
</g>
<g id="Warstwa_1">
</g>
</svg>
