<?xml version="1.0" encoding="iso-8859-1"?>
<!-- Generator: Adobe Illustrator 16.0.0, SVG Export Plug-In . SVG Version: 6.00 Build 0)  -->
<!DOCTYPE svg PUBLIC "-//W3C//DTD SVG 1.1//EN" "http://www.w3.org/Graphics/SVG/1.1/DTD/svg11.dtd">
<svg version="1.1" xmlns="http://www.w3.org/2000/svg" xmlns:xlink="http://www.w3.org/1999/xlink" x="0px" y="0px" width="370px"
	 height="180px" viewBox="0 0 370 180" style="enable-background:new 0 0 370 180;" xml:space="preserve">
<g id="ico_x5F_kategoria_x5F_sport">
	<g>
		<g>
			<g>
				
					<line style="fill:none;stroke:#FFFFFF;stroke-width:3;stroke-miterlimit:10;" x1="122.893" y1="82.887" x2="131.019" y2="86.37"/>
				
					<line style="fill:none;stroke:#FFFFFF;stroke-width:3;stroke-miterlimit:10;" x1="164.686" y1="82.887" x2="156.559" y2="86.37"/>
				<path style="fill:none;stroke:#FFFFFF;stroke-width:3;stroke-miterlimit:10;" d="M133.341,107.267l-13.932,0.005l0.248,6.047
					c3.615,3.717,8.08,6.602,13.084,8.338l5.003-2.076L133.341,107.267z"/>
				<path style="fill:none;stroke:#FFFFFF;stroke-width:3;stroke-miterlimit:10;" d="M135.061,57.335l-2.899,4.168l11.627,7.453
					l10.448-7.989l-2.631-3.762c-2.571-0.646-5.26-0.996-8.028-1.013C140.633,56.21,137.779,56.608,135.061,57.335z"/>
				<path style="fill:none;stroke:#FFFFFF;stroke-width:3;stroke-miterlimit:10;" d="M167.94,112.857l0.228-5.586l-12.771-0.005
					l-5.563,12.313l4.813,1.998C159.762,119.759,164.302,116.736,167.94,112.857z"/>
				<path style="fill:none;stroke:#FFFFFF;stroke-width:3;stroke-miterlimit:10;" d="M166.576,70.117l-1.892,12.77l11.617,7.055
					l0.7-1.336c-0.242-6.639-2.404-12.785-5.951-17.904L166.576,70.117z"/>
				<circle style="fill:none;stroke:#FFFFFF;stroke-width:3;stroke-miterlimit:10;" cx="143.789" cy="89.853" r="33.667"/>
				<polygon style="fill:none;stroke:#FFFFFF;stroke-width:3;stroke-miterlimit:10;" points="151.915,100.302 136.363,100.302 
					131.019,86.37 143.789,77.083 156.559,86.37 				"/>
				<path style="fill:none;stroke:#FFFFFF;stroke-width:3;stroke-miterlimit:10;" d="M122.893,82.887l-1.894-12.77l-4.938,0.646
					c-3.39,4.914-5.507,10.771-5.875,17.099l1.089,2.08L122.893,82.887z"/>
				
					<line style="fill:none;stroke:#FFFFFF;stroke-width:3;stroke-miterlimit:10;" x1="136.823" y1="100.302" x2="133.341" y2="107.267"/>
				
					<line style="fill:none;stroke:#FFFFFF;stroke-width:3;stroke-miterlimit:10;" x1="151.915" y1="100.302" x2="155.398" y2="107.267"/>
				
					<line style="fill:none;stroke:#FFFFFF;stroke-width:3;stroke-miterlimit:10;" x1="143.789" y1="68.956" x2="143.789" y2="77.083"/>
			</g>
			<g>
				<g>
					
						<line style="fill:none;stroke:#FFFFFF;stroke-width:3;stroke-miterlimit:10;" x1="156.15" y1="147.729" x2="157.645" y2="152.824"/>
					
						<line style="fill:none;stroke:#FFFFFF;stroke-width:3;stroke-miterlimit:10;" x1="163.074" y1="147.996" x2="164.41" y2="152.553"/>
					
						<line style="fill:none;stroke:#FFFFFF;stroke-width:3;stroke-miterlimit:10;" x1="170.714" y1="150.701" x2="169.659" y2="147.105"/>
					
						<line style="fill:none;stroke:#FFFFFF;stroke-width:3;stroke-miterlimit:10;" x1="227.439" y1="134.029" x2="226.436" y2="130.607"/>
					
						<line style="fill:none;stroke:#FFFFFF;stroke-width:3;stroke-miterlimit:10;" x1="221.184" y1="136.044" x2="220.025" y2="132.095"/>
					
						<line style="fill:none;stroke:#FFFFFF;stroke-width:3;stroke-miterlimit:10;" x1="214.881" y1="137.895" x2="213.26" y2="132.369"/>
					
						<line style="fill:none;stroke:#FFFFFF;stroke-width:3;stroke-miterlimit:10;" x1="194.717" y1="121.662" x2="183.547" y2="114.962"/>
					
						<line style="fill:none;stroke:#FFFFFF;stroke-width:3;stroke-miterlimit:10;" x1="187.299" y1="125.55" x2="178.128" y2="120.537"/>
					
						<line style="fill:none;stroke:#FFFFFF;stroke-width:3;stroke-miterlimit:10;" x1="179.882" y1="129.438" x2="172.405" y2="125.354"/>
					<path style="fill:none;stroke:#FFFFFF;stroke-width:3;stroke-miterlimit:10;" d="M205.014,110.085l-8.369-5.19
						c-1.549-0.539-3.26-0.236-4.52,0.813c-5.619,4.678-11.789,15.434-24.888,23.078c-1.593,0.93-3.305,1.656-5.007,2.406
						l-12.107,3.549c-2.468,0.474-4.196,2.568-4.436,5.06c-0.275,2.868,1.483,5.552,4.234,6.409c0.074,0.025,0.147,0.045,0.224,0.07
						c8.493,2.611,17.348,2.23,25.604-1.053c5.851-2.33,14.83-6.025,21.429-9.307c3.945-1.961,8.232-3.123,12.633-3.361l8.785-0.477
						l0.121,0.006c0.115,0.008,0.234,0.01,0.355,0.014c9.771,0.215,20.994-8.512,12.397-22.203
						c-0.213-0.342-0.471-0.649-0.721-0.955l-6.769-8.998c-1.217-1.615-3.737-1.235-4.424,0.664
						c-1.254,3.469-4.02,6.531-7.594,7.438L205.014,110.085z"/>
				</g>
				
					<line style="fill:none;stroke:#FFFFFF;stroke-width:3;stroke-miterlimit:10;" x1="234.217" y1="100.888" x2="243.333" y2="98.214"/>
				
					<line style="fill:none;stroke:#FFFFFF;stroke-width:3;stroke-miterlimit:10;" x1="256.172" y1="106.787" x2="272.484" y2="102.005"/>
				
					<line style="fill:none;stroke:#FFFFFF;stroke-width:3;stroke-miterlimit:10;" x1="247.607" y1="119.337" x2="255.044" y2="117.156"/>
			</g>
			<g>
				
					<line style="fill:none;stroke:#FFFFFF;stroke-width:3;stroke-miterlimit:10;" x1="99.231" y1="60.495" x2="103.515" y2="66.65"/>
				
					<line style="fill:none;stroke:#FFFFFF;stroke-width:3;stroke-miterlimit:10;" x1="118.918" y1="51.475" x2="103.866" y2="29.857"/>
				<line style="fill:none;stroke:#FFFFFF;stroke-width:3;stroke-miterlimit:10;" x1="132.9" y1="49.75" x2="126.33" y2="40.313"/>
			</g>
		</g>
	</g>
</g>
<g id="Warstwa_1">
</g>
</svg>
