<?xml version="1.0" encoding="iso-8859-1"?>
<!-- Generator: Adobe Illustrator 16.0.0, SVG Export Plug-In . SVG Version: 6.00 Build 0)  -->
<!DOCTYPE svg PUBLIC "-//W3C//DTD SVG 1.1//EN" "http://www.w3.org/Graphics/SVG/1.1/DTD/svg11.dtd">
<svg version="1.1" xmlns="http://www.w3.org/2000/svg" xmlns:xlink="http://www.w3.org/1999/xlink" x="0px" y="0px" width="370px"
	 height="180px" viewBox="0 0 370 180" style="enable-background:new 0 0 370 180;" xml:space="preserve">
<g id="ico_x5F_wspolpraca_x5F_02">
	<g>
		<g>
			<path style="fill:none;stroke:#FFFFFF;stroke-width:3;stroke-miterlimit:10;" d="M159.865,70.748
				c8.381-14.46,24.025-24.187,41.944-24.187c26.756,0,48.442,21.688,48.442,48.443c0,26.756-21.688,48.443-48.442,48.443"/>
			<g>
				<g>
					<path style="fill:none;stroke:#FFFFFF;stroke-width:3;stroke-miterlimit:10;" d="M167.485,74.446
						c0.344-0.572,0.702-1.135,1.073-1.688"/>
					<path style="fill:none;stroke:#FFFFFF;stroke-width:3;stroke-miterlimit:10;stroke-dasharray:3.9255,5.8882;" d="
						M172.185,68.127c7.326-8.066,17.893-13.139,29.624-13.139c22.064,0,40.019,17.953,40.019,40.02
						c0.001,20.397-15.341,37.28-35.093,39.717"/>
					<path style="fill:none;stroke:#FFFFFF;stroke-width:3;stroke-miterlimit:10;" d="M203.809,134.975
						c-0.664,0.033-1.33,0.051-2,0.051"/>
				</g>
			</g>
			<circle style="fill:none;stroke:#FFFFFF;stroke-width:3;stroke-miterlimit:10;" cx="201.809" cy="36.031" r="10.531"/>
			
				<line style="fill:none;stroke:#FFFFFF;stroke-width:3;stroke-miterlimit:10;" x1="197.596" y1="36.031" x2="206.021" y2="36.031"/>
			
				<line style="fill:none;stroke:#FFFFFF;stroke-width:3;stroke-miterlimit:10;" x1="201.809" y1="36.031" x2="201.809" y2="46.562"/>
			<path style="fill:none;stroke:#FFFFFF;stroke-width:3;stroke-miterlimit:10;" d="M196.973,99.949L196.973,99.949
				c-2.32-2.318-1.963-6.182,0.747-8.034l27.216-20.589c0.438-0.299,0.961,0.226,0.664,0.663l-20.591,27.215
				C203.154,101.914,199.294,102.275,196.973,99.949z"/>
			<g>
				<circle style="fill:none;stroke:#FFFFFF;stroke-width:3;stroke-miterlimit:10;" cx="175.23" cy="123.751" r="21.682"/>
				<path style="fill:none;stroke:#FFFFFF;stroke-width:3;stroke-miterlimit:10;" d="M187.305,111.678
					c6.668,6.668,6.666,17.479,0,24.146"/>
				
					<line style="fill:none;stroke:#FFFFFF;stroke-width:3;stroke-miterlimit:10;" x1="156.148" y1="142.831" x2="142.542" y2="156.439"/>
			</g>
			<g>
				<polyline style="fill:none;stroke:#FFFFFF;stroke-width:3;stroke-miterlimit:10;" points="146.173,123.161 119.5,123.161 
					119.5,80.984 178.547,80.984 				"/>
				<polyline style="fill:none;stroke:#FFFFFF;stroke-width:3;stroke-miterlimit:10;" points="168.632,95.042 119.5,95.042 
					119.5,80.984 178.547,80.984 178.547,87.027 				"/>
				
					<line style="fill:none;stroke:#FFFFFF;stroke-width:3;stroke-miterlimit:10;" x1="125.124" y1="88.013" x2="136.371" y2="88.013"/>
				
					<line style="fill:none;stroke:#FFFFFF;stroke-width:3;stroke-miterlimit:10;" x1="127.936" y1="103.479" x2="149.025" y2="103.479"/>
				
					<line style="fill:none;stroke:#FFFFFF;stroke-width:3;stroke-miterlimit:10;" x1="127.936" y1="109.102" x2="147.246" y2="109.102"/>
				
					<line style="fill:none;stroke:#FFFFFF;stroke-width:3;stroke-miterlimit:10;" x1="127.936" y1="114.725" x2="147.246" y2="114.725"/>
			</g>
		</g>
	</g>
</g>
<g id="Warstwa_1">
</g>
</svg>
