<?xml version="1.0" encoding="iso-8859-1"?>
<!-- Generator: Adobe Illustrator 16.0.0, SVG Export Plug-In . SVG Version: 6.00 Build 0)  -->
<!DOCTYPE svg PUBLIC "-//W3C//DTD SVG 1.1//EN" "http://www.w3.org/Graphics/SVG/1.1/DTD/svg11.dtd">
<svg version="1.1" xmlns="http://www.w3.org/2000/svg" xmlns:xlink="http://www.w3.org/1999/xlink" x="0px" y="0px" width="370px"
	 height="180px" viewBox="0 0 370 180" style="enable-background:new 0 0 370 180;" xml:space="preserve">
<g id="ico_x5F_oferta_x5F_dostawa">
	<g>
		<g>
			<path style="fill:none;stroke:#FFFFFF;stroke-width:3;stroke-miterlimit:10;" d="M217.607,58.5h-71.73v54.211h12.587
				c0-5.789,4.694-10.482,10.483-10.482c5.79,0,10.484,4.693,10.484,10.482h38.174V70.225"/>
			<path style="fill:none;stroke:#FFFFFF;stroke-width:3;stroke-miterlimit:10;" d="M226.678,112.711
				c0,5.791,4.692,10.484,10.481,10.484c5.791,0,10.483-4.693,10.483-10.484"/>
			<path style="fill:none;stroke:#FFFFFF;stroke-width:3;stroke-miterlimit:10;" d="M247.645,112.711
				c0-5.789-4.693-10.482-10.484-10.482c-5.789,0-10.482,4.693-10.482,10.482"/>
			<path style="fill:none;stroke:#FFFFFF;stroke-width:3;stroke-miterlimit:10;" d="M158.465,112.711
				c0,5.791,4.694,10.484,10.483,10.484c5.79,0,10.484-4.693,10.484-10.484"/>
			<path style="fill:none;stroke:#FFFFFF;stroke-width:3;stroke-miterlimit:10;" d="M179.432,112.711
				c0-5.789-4.694-10.482-10.484-10.482s-10.483,4.693-10.483,10.482"/>
			<g>
				<path style="fill:none;stroke:#FFFFFF;stroke-width:3;stroke-miterlimit:10;" d="M256.256,88.325h-24.25V76.549h17.771
					l-3.478-6.324h-28.693v42.486h9.07c0-5.789,4.693-10.482,10.482-10.482c5.791,0,10.484,4.693,10.484,10.482h10.795V92.296
					L256.256,88.325z"/>
				
					<rect x="246.297" y="82.432" transform="matrix(-0.4819 -0.8762 0.8762 -0.4819 302.71 343.8575)" style="fill:none;stroke:#FFFFFF;stroke-width:3;stroke-miterlimit:10;" width="13.438" height="0.002"/>
				<polygon style="fill:none;stroke:#FFFFFF;stroke-width:3;stroke-miterlimit:10;" points="232.006,88.325 256.256,88.325 
					249.777,76.549 232.006,76.549 				"/>
			</g>
			
				<line style="fill:none;stroke:#FFFFFF;stroke-width:3;stroke-miterlimit:10;" x1="119.392" y1="70.594" x2="164.27" y2="70.594"/>
			
				<line style="fill:none;stroke:#FFFFFF;stroke-width:3;stroke-miterlimit:10;" x1="131.162" y1="85.606" x2="163.166" y2="85.606"/>
			
				<line style="fill:none;stroke:#FFFFFF;stroke-width:3;stroke-miterlimit:10;" x1="189.098" y1="70.594" x2="210.617" y2="70.594"/>
			
				<line style="fill:none;stroke:#FFFFFF;stroke-width:3;stroke-miterlimit:10;" x1="182.407" y1="97.814" x2="193.167" y2="97.814"/>
			
				<line style="fill:none;stroke:#FFFFFF;stroke-width:3;stroke-miterlimit:10;" x1="230.852" y1="95.241" x2="267.863" y2="95.241"/>
			
				<line style="fill:none;stroke:#FFFFFF;stroke-width:3;stroke-miterlimit:10;" x1="129.161" y1="97.814" x2="151.395" y2="97.814"/>
			<line style="fill:none;stroke:#FFFFFF;stroke-width:3;stroke-miterlimit:10;" x1="101" y1="97.814" x2="116.16" y2="97.814"/>
		</g>
	</g>
</g>
<g id="Warstwa_1">
</g>
</svg>
