<?xml version="1.0" encoding="iso-8859-1"?>
<!-- Generator: Adobe Illustrator 16.0.0, SVG Export Plug-In . SVG Version: 6.00 Build 0)  -->
<!DOCTYPE svg PUBLIC "-//W3C//DTD SVG 1.1//EN" "http://www.w3.org/Graphics/SVG/1.1/DTD/svg11.dtd">
<svg version="1.1" xmlns="http://www.w3.org/2000/svg" xmlns:xlink="http://www.w3.org/1999/xlink" x="0px" y="0px" width="370px"
	 height="180px" viewBox="0 0 370 180" style="enable-background:new 0 0 370 180;" xml:space="preserve">
<g id="ico_x5F_kategoria_x5F_uroda">
	<g>
		<g>
			
				<rect x="174.652" y="40.314" style="fill:none;stroke:#FFFFFF;stroke-width:3;stroke-miterlimit:10;" width="17.161" height="15.958"/>
			<polygon style="fill:none;stroke:#FFFFFF;stroke-width:3;stroke-miterlimit:10;" points="226.728,64.941 235.73,70.945 
				235.73,82.816 226.728,82.816 			"/>
			<path style="fill:none;stroke:#FFFFFF;stroke-width:3;stroke-miterlimit:10;" d="M169.019,150.041h-8.196
				c-1.879,0-3.403-1.524-3.403-3.404V59.675c0-1.88,1.524-3.403,3.403-3.403h44.818c1.88,0,3.403,1.523,3.403,3.403v48.871"/>
			<g>
				<path style="fill:none;stroke:#FFFFFF;stroke-width:3;stroke-miterlimit:10;" d="M150.346,103.982h-40.15
					c-1.88,0-3.404,1.521-3.404,3.401l-4.803,38.938c0,1.881,1.524,3.403,3.405,3.403h46.953"/>
				
					<rect x="120.399" y="79.804" style="fill:none;stroke:#FFFFFF;stroke-width:3;stroke-miterlimit:10;" width="24.409" height="24.178"/>
				
					<rect x="127.202" y="70.381" style="fill:none;stroke:#FFFFFF;stroke-width:3;stroke-miterlimit:10;" width="10.803" height="9.423"/>
				
					<line style="fill:none;stroke:#FFFFFF;stroke-width:3;stroke-miterlimit:10;stroke-dasharray:3,3;" x1="114.192" y1="79.529" x2="100.124" y2="86.739"/>
				
					<line style="fill:none;stroke:#FFFFFF;stroke-width:3;stroke-miterlimit:10;stroke-dasharray:3,3;" x1="112.811" y1="73.941" x2="97.004" y2="73.902"/>
				
					<line style="fill:none;stroke:#FFFFFF;stroke-width:3;stroke-miterlimit:10;stroke-dasharray:3,3;" x1="114.143" y1="68.34" x2="100.11" y2="61.063"/>
			</g>
			<polygon style="fill:none;stroke:#FFFFFF;stroke-width:3;stroke-miterlimit:10;" points="258.382,145.035 175.59,149.726 
				175.59,116.109 258.382,120.8 			"/>
			<polygon style="fill:none;stroke:#FFFFFF;stroke-width:3;stroke-miterlimit:10;" points="272.562,143.715 258.382,140.199 
				258.382,125.637 272.562,122.12 			"/>
			<g>
				
					<line style="fill:none;stroke:#FFFFFF;stroke-width:3;stroke-miterlimit:10;" x1="175.59" y1="120.411" x2="183.319" y2="120.411"/>
				
					<line style="fill:none;stroke:#FFFFFF;stroke-width:3;stroke-miterlimit:10;" x1="175.59" y1="126.464" x2="183.319" y2="126.464"/>
				
					<line style="fill:none;stroke:#FFFFFF;stroke-width:3;stroke-miterlimit:10;" x1="175.59" y1="132.518" x2="183.319" y2="132.518"/>
				
					<line style="fill:none;stroke:#FFFFFF;stroke-width:3;stroke-miterlimit:10;" x1="175.59" y1="138.57" x2="183.319" y2="138.57"/>
				
					<line style="fill:none;stroke:#FFFFFF;stroke-width:3;stroke-miterlimit:10;" x1="175.59" y1="144.624" x2="183.319" y2="144.624"/>
			</g>
			<polyline style="fill:none;stroke:#FFFFFF;stroke-width:3;stroke-miterlimit:10;" points="221.515,111.749 221.515,100.689 
				240.943,100.689 240.943,114.348 			"/>
			
				<rect x="224.625" y="82.816" style="fill:none;stroke:#FFFFFF;stroke-width:3;stroke-miterlimit:10;" width="13.207" height="17.874"/>
			
				<line style="fill:none;stroke:#FFFFFF;stroke-width:3;stroke-miterlimit:10;" x1="167.219" y1="71.329" x2="182.027" y2="71.329"/>
			<line style="fill:none;stroke:#FFFFFF;stroke-width:3;stroke-miterlimit:10;" x1="182.027" y1="85.3" x2="202.037" y2="85.3"/>
			
				<line style="fill:none;stroke:#FFFFFF;stroke-width:3;stroke-miterlimit:10;" x1="176.089" y1="95.939" x2="183.232" y2="95.939"/>
			
				<line style="fill:none;stroke:#FFFFFF;stroke-width:3;stroke-miterlimit:10;" x1="169.019" y1="106.145" x2="190.449" y2="106.145"/>
			<g>
				<path style="fill:none;stroke:#FFFFFF;stroke-width:3;stroke-miterlimit:10;" d="M140.092,136.871
					c-5.745,0-10.405-4.66-10.405-10.406c0-5.744,4.66-10.404,10.405-10.404"/>
				<path style="fill:none;stroke:#FFFFFF;stroke-width:3;stroke-miterlimit:10;" d="M125.117,136.871
					c5.744,0,10.404-4.66,10.404-10.406c0-5.744-4.66-10.404-10.404-10.404"/>
			</g>
			
				<line style="fill:none;stroke:#FFFFFF;stroke-width:3;stroke-miterlimit:10;" x1="191.632" y1="132.917" x2="214.441" y2="132.917"/>
			
				<line style="fill:none;stroke:#FFFFFF;stroke-width:3;stroke-miterlimit:10;" x1="206.838" y1="138.57" x2="217.643" y2="138.57"/>
			
				<line style="fill:none;stroke:#FFFFFF;stroke-width:3;stroke-miterlimit:10;" x1="243.656" y1="130.357" x2="252.06" y2="130.357"/>
			<path style="fill:none;stroke:#FFFFFF;stroke-width:3;stroke-miterlimit:10;" d="M204.185,40.366c0,1.508-1.223,2.73-2.729,2.73
				l-7.645-2.89h-25.528c-1.509,0-2.731-1.223-2.731-2.731V35.23c0-1.509,1.223-2.73,2.731-2.73h25.528l7.645,2.89
				c1.508,0,2.729,1.223,2.729,2.73V40.366z"/>
		</g>
	</g>
</g>
<g id="Warstwa_1">
</g>
</svg>
