<?xml version="1.0" encoding="iso-8859-1"?>
<!-- Generator: Adobe Illustrator 16.0.0, SVG Export Plug-In . SVG Version: 6.00 Build 0)  -->
<!DOCTYPE svg PUBLIC "-//W3C//DTD SVG 1.1//EN" "http://www.w3.org/Graphics/SVG/1.1/DTD/svg11.dtd">
<svg version="1.1" xmlns="http://www.w3.org/2000/svg" xmlns:xlink="http://www.w3.org/1999/xlink" x="0px" y="0px" width="370px"
	 height="180px" viewBox="0 0 370 180" style="enable-background:new 0 0 370 180;" xml:space="preserve">
<g id="ico_x5F_benefity_x5F_rozwoj">
	<g>
		<g>
			<path style="fill:none;stroke:#FFFFFF;stroke-width:3;stroke-miterlimit:10;" d="M240.449,97.879
				c0,23.158-18.771,41.932-41.934,41.932s-41.941-18.771-41.941-41.932c0-23.165,18.778-41.939,41.941-41.939
				C221.679,55.939,240.449,74.714,240.449,97.879z"/>
			<circle style="fill:none;stroke:#FFFFFF;stroke-width:3;stroke-miterlimit:10;" cx="198.514" cy="97.876" r="19.86"/>
			<path style="fill:none;stroke:#FFFFFF;stroke-width:3;stroke-miterlimit:10;" d="M198.511,129.465
				c-17.438,0-31.582-14.143-31.582-31.591c0-17.447,14.144-31.587,31.582-31.587c17.453,0,31.588,14.14,31.588,31.587"/>
			<g>
				<g>
					<g>
						
							<line style="fill:none;stroke:#FFFFFF;stroke-width:3;stroke-linecap:square;stroke-miterlimit:10;" x1="198.511" y1="85.337" x2="198.513" y2="97.877"/>
						
							<line style="fill:none;stroke:#FFFFFF;stroke-width:3;stroke-linecap:square;stroke-miterlimit:10;" x1="185.978" y1="97.871" x2="198.513" y2="97.877"/>
					</g>
				</g>
				<g>
					<g>
						
							<line style="fill:none;stroke:#FFFFFF;stroke-width:3;stroke-miterlimit:10;" x1="164.708" y1="51.535" x2="164.711" y2="64.075"/>
						
							<line style="fill:none;stroke:#FFFFFF;stroke-width:3;stroke-miterlimit:10;" x1="152.174" y1="64.07" x2="164.711" y2="64.075"/>
					</g>
				</g>
				<g>
					<g>
						
							<line style="fill:none;stroke:#FFFFFF;stroke-width:3;stroke-miterlimit:10;" x1="158.44" y1="45.267" x2="158.443" y2="57.806"/>
						
							<line style="fill:none;stroke:#FFFFFF;stroke-width:3;stroke-miterlimit:10;" x1="145.906" y1="57.802" x2="158.443" y2="57.806"/>
					</g>
				</g>
				<g>
					<g>
						
							<line style="fill:none;stroke:#FFFFFF;stroke-width:3;stroke-miterlimit:10;" x1="152.172" y1="39" x2="152.174" y2="51.538"/>
						
							<line style="fill:none;stroke:#FFFFFF;stroke-width:3;stroke-miterlimit:10;" x1="139.637" y1="51.533" x2="152.174" y2="51.538"/>
					</g>
				</g>
				
					<line style="fill:none;stroke:#FFFFFF;stroke-width:3;stroke-miterlimit:10;" x1="198.513" y1="97.877" x2="145.035" y2="44.396"/>
			</g>
			
				<line style="fill:none;stroke:#FFFFFF;stroke-width:3;stroke-miterlimit:10;" x1="175.257" y1="40.881" x2="183.224" y2="48.849"/>
			
				<line style="fill:none;stroke:#FFFFFF;stroke-width:3;stroke-miterlimit:10;" x1="175.257" y1="55.939" x2="188.996" y2="69.68"/>
			
				<line style="fill:none;stroke:#FFFFFF;stroke-width:3;stroke-miterlimit:10;" x1="156.576" y1="75.433" x2="164.544" y2="83.402"/>
			
				<line style="fill:none;stroke:#FFFFFF;stroke-width:3;stroke-miterlimit:10;" x1="128.061" y1="57.806" x2="141.393" y2="71.137"/>
		</g>
	</g>
</g>
<g id="Warstwa_1">
</g>
</svg>
