<?xml version="1.0" encoding="iso-8859-1"?>
<!-- Generator: Adobe Illustrator 16.0.0, SVG Export Plug-In . SVG Version: 6.00 Build 0)  -->
<!DOCTYPE svg PUBLIC "-//W3C//DTD SVG 1.1//EN" "http://www.w3.org/Graphics/SVG/1.1/DTD/svg11.dtd">
<svg version="1.1" xmlns="http://www.w3.org/2000/svg" xmlns:xlink="http://www.w3.org/1999/xlink" x="0px" y="0px" width="370px"
	 height="180px" viewBox="0 0 370 180" style="enable-background:new 0 0 370 180;" xml:space="preserve">
<g id="ico_x5F_kategoria_x5F_narzedzia">
	<g>
		<g>
			<g id="settings">
				<g>
					<path style="fill:none;stroke:#FFFFFF;stroke-width:3;stroke-miterlimit:10;" d="M194.973,52.256
						c2.699-0.136,5.287,0.922,7.764,3.173l17.969,16.534l1.926-2.113l6.857,6.313l-10.449,11.734l-6.861-6.359l1.705-1.914
						l-18.061-16.626c-2.092-1.895-4.686-2.765-7.785-2.608c-2.055,0.104-4.031,0.595-5.924,1.473
						C186.146,55.687,190.434,52.485,194.973,52.256z"/>
					<polygon style="fill:none;stroke:#FFFFFF;stroke-width:3;stroke-miterlimit:10;" points="216.166,66.849 207.906,59.249 
						209.352,57.628 217.609,65.228 					"/>
					<polyline style="fill:none;stroke:#FFFFFF;stroke-width:3;stroke-miterlimit:10;" points="173.526,96.531 152.401,119.257 
						162.929,128.947 183.033,105.248 					"/>
					<g>
						<polyline style="fill:none;stroke:#FFFFFF;stroke-width:3;stroke-miterlimit:10;" points="196.957,89.25 208.91,75.091 
							200.605,67.447 188.029,81.063 						"/>
						<path style="fill:none;stroke:#FFFFFF;stroke-width:3;stroke-miterlimit:10;" d="M219.82,117.07
							c0.254-1.107,0.354-2.207,0.299-3.299c-0.156-3.211-1.395-5.885-3.713-8.019c-2.316-2.133-5.072-3.12-8.262-2.958
							c-1.074,0.054-2.141,0.249-3.201,0.583L193.596,92.98l0.051-0.061l-9.022-8.271l-0.014,0.017l-11.88-10.935
							c0.224-1.074,0.309-2.156,0.257-3.249c-0.161-3.273-1.399-5.979-3.718-8.112c-2.319-2.133-5.059-3.121-8.216-2.961
							c-1.104,0.056-2.186,0.267-3.243,0.633l9.176,8.444l-8.129,9.18l-9.179-8.445c-0.253,1.107-0.354,2.206-0.301,3.298
							c0.157,3.211,1.395,5.885,3.713,8.019c2.317,2.134,5.058,3.12,8.216,2.96c1.166-0.059,2.309-0.288,3.426-0.689l3.982,3.665
							l0.009-0.009l25.932,23.775l-0.049,0.055l2.241,2.075c-0.278,1.17-0.393,2.331-0.336,3.485
							c0.158,3.242,1.39,5.933,3.689,8.065c2.305,2.135,5.051,3.121,8.24,2.96c1.074-0.055,2.141-0.266,3.199-0.631l-9.178-8.445
							l8.176-9.181L219.82,117.07z"/>
					</g>
				</g>
			</g>
			
				<line style="fill:none;stroke:#FFFFFF;stroke-width:3;stroke-miterlimit:10;" x1="159.443" y1="25.568" x2="164.792" y2="38.638"/>
			
				<line style="fill:none;stroke:#FFFFFF;stroke-width:3;stroke-miterlimit:10;" x1="213.014" y1="26.737" x2="207.555" y2="39.761"/>
			
				<line style="fill:none;stroke:#FFFFFF;stroke-width:3;stroke-miterlimit:10;" x1="250.068" y1="65.443" x2="236.998" y2="70.792"/>
			
				<line style="fill:none;stroke:#FFFFFF;stroke-width:3;stroke-miterlimit:10;" x1="248.9" y1="119.013" x2="235.875" y2="113.554"/>
			
				<line style="fill:none;stroke:#FFFFFF;stroke-width:3;stroke-miterlimit:10;" x1="210.193" y1="156.068" x2="204.844" y2="142.999"/>
			
				<line style="fill:none;stroke:#FFFFFF;stroke-width:3;stroke-miterlimit:10;" x1="156.623" y1="154.899" x2="162.082" y2="141.875"/>
			
				<line style="fill:none;stroke:#FFFFFF;stroke-width:3;stroke-miterlimit:10;" x1="119.568" y1="116.193" x2="132.637" y2="110.844"/>
			
				<line style="fill:none;stroke:#FFFFFF;stroke-width:3;stroke-miterlimit:10;" x1="120.735" y1="62.622" x2="133.761" y2="68.082"/>
		</g>
	</g>
</g>
<g id="Warstwa_1">
</g>
</svg>
