<?xml version="1.0" encoding="iso-8859-1"?>
<!-- Generator: Adobe Illustrator 16.0.0, SVG Export Plug-In . SVG Version: 6.00 Build 0)  -->
<!DOCTYPE svg PUBLIC "-//W3C//DTD SVG 1.1//EN" "http://www.w3.org/Graphics/SVG/1.1/DTD/svg11.dtd">
<svg version="1.1" xmlns="http://www.w3.org/2000/svg" xmlns:xlink="http://www.w3.org/1999/xlink" x="0px" y="0px" width="370px"
	 height="180px" viewBox="0 0 370 180" style="enable-background:new 0 0 370 180;" xml:space="preserve">
<g id="ico_x5F_kategoria_x5F_agdrtv">
	<g>
		<g>
			<path style="fill:none;stroke:#FFFFFF;stroke-width:3;stroke-miterlimit:10;" d="M107.5,61.828c0,0,28.153,3.412,50.049,3.412
				s50.05-3.412,50.05-3.412v62.24c0,0-28.153-3.412-50.05-3.412c-21.896,0-50.049,3.412-50.049,3.412V61.828z"/>
			<path style="fill:none;stroke:#FFFFFF;stroke-width:3;stroke-miterlimit:10;" d="M112.05,118.743V67.152
				c0,0,25.594,2.829,45.499,2.829"/>
			<path style="fill:none;stroke:#FFFFFF;stroke-width:3;stroke-miterlimit:10;" d="M203.049,67.152v51.591
				c0,0-25.594-2.829-45.5-2.829"/>
			
				<rect x="117.666" y="128.882" style="fill:none;stroke:#FFFFFF;stroke-width:3;stroke-miterlimit:10;" width="79.768" height="12.284"/>
			<circle style="fill:none;stroke:#FFFFFF;stroke-width:3;stroke-miterlimit:10;" cx="130.747" cy="135.022" r="4.55"/>
			<circle style="fill:none;stroke:#FFFFFF;stroke-width:3;stroke-miterlimit:10;" cx="184.351" cy="135.022" r="4.55"/>
			
				<line style="fill:none;stroke:#FFFFFF;stroke-width:3;stroke-miterlimit:10;" x1="119.699" y1="112.986" x2="126.865" y2="105.82"/>
			
				<line style="fill:none;stroke:#FFFFFF;stroke-width:3;stroke-miterlimit:10;" x1="120.101" y1="101.598" x2="123.969" y2="97.729"/>
			
				<line style="fill:none;stroke:#FFFFFF;stroke-width:3;stroke-miterlimit:10;" x1="126.341" y1="97.344" x2="126.341" y2="97.344"/>
			
				<line style="fill:none;stroke:#FFFFFF;stroke-width:3;stroke-miterlimit:10;" x1="129.923" y1="93.762" x2="135.298" y2="88.386"/>
			
				<line style="fill:none;stroke:#FFFFFF;stroke-width:3;stroke-miterlimit:10;" x1="148.165" y1="124.744" x2="166.933" y2="124.744"/>
			<g>
				<path style="fill:none;stroke:#FFFFFF;stroke-width:3;stroke-miterlimit:10;" d="M203.057,52.591
					c0-6.678,5.414-12.091,12.092-12.091h33.83c6.677,0,12.092,5.414,12.092,12.091v76.484c0,6.678-5.415,12.091-12.092,12.091
					h-33.829c-6.679,0-12.093-5.413-12.093-12.091"/>
				
					<line style="fill:none;stroke:#FFFFFF;stroke-width:3;stroke-miterlimit:10;" x1="215.854" y1="74.926" x2="261.07" y2="74.926"/>
				
					<line style="fill:none;stroke:#FFFFFF;stroke-width:3;stroke-miterlimit:10;" x1="215.286" y1="88.274" x2="222.965" y2="88.274"/>
				
					<line style="fill:none;stroke:#FFFFFF;stroke-width:3;stroke-miterlimit:10;" x1="215.286" y1="61.258" x2="222.965" y2="61.258"/>
			</g>
		</g>
	</g>
</g>
<g id="Warstwa_1">
</g>
</svg>
