<?xml version="1.0" encoding="iso-8859-1"?>
<!-- Generator: Adobe Illustrator 16.0.0, SVG Export Plug-In . SVG Version: 6.00 Build 0)  -->
<!DOCTYPE svg PUBLIC "-//W3C//DTD SVG 1.1//EN" "http://www.w3.org/Graphics/SVG/1.1/DTD/svg11.dtd">
<svg version="1.1" xmlns="http://www.w3.org/2000/svg" xmlns:xlink="http://www.w3.org/1999/xlink" x="0px" y="0px" width="370px"
	 height="180px" viewBox="0 0 370 180" style="enable-background:new 0 0 370 180;" xml:space="preserve">
<g id="ico_x5F_oferta_x5F_szeroka">
	<g>
		<g>
			<g>
				<g>
					<path style="fill:none;stroke:#FFFFFF;stroke-width:3;stroke-miterlimit:10;" d="M131.024,77.171
						c0.557-1.917,1.233-3.801,2.026-5.641"/>
					<path style="fill:none;stroke:#FFFFFF;stroke-width:3;stroke-miterlimit:10;stroke-dasharray:10.74,10.74;" d="M138.366,62.224
						c3.142-4.299,7.057-8.146,11.703-11.323c18.733-12.807,43.303-10.576,59.421,4.007"/>
					<path style="fill:none;stroke:#FFFFFF;stroke-width:3;stroke-miterlimit:10;" d="M213.268,58.731
						c1.309,1.482,2.539,3.062,3.685,4.736"/>
				</g>
			</g>
			<g>
				<g>
					<path style="fill:none;stroke:#FFFFFF;stroke-width:3;stroke-miterlimit:10;" d="M204.387,130.352
						c-1.674,1.145-3.396,2.169-5.152,3.074"/>
					<path style="fill:none;stroke:#FFFFFF;stroke-width:3;stroke-miterlimit:10;stroke-dasharray:10.7596,10.7596;" d="
						M189.195,137.248c-12.34,3.167-25.455,1.271-36.355-5.127"/>
					<path style="fill:none;stroke:#FFFFFF;stroke-width:3;stroke-miterlimit:10;" d="M148.359,129.142
						c-1.589-1.19-3.114-2.488-4.563-3.893"/>
				</g>
			</g>
			<rect x="116.5" y="86.341" style="fill:none;stroke:#FFFFFF;stroke-width:3;stroke-miterlimit:10;" width="48" height="30"/>
			<polyline style="fill:none;stroke:#FFFFFF;stroke-width:3;stroke-miterlimit:10;" points="124.5,79.341 172.5,79.341 
				172.5,109.341 			"/>
			<polyline style="fill:none;stroke:#FFFFFF;stroke-width:3;stroke-miterlimit:10;" points="164.5,59.674 189.833,59.674 
				189.833,110.341 164.5,110.341 			"/>
			<line style="fill:none;stroke:#FFFFFF;stroke-width:3;stroke-miterlimit:10;" x1="158.5" y1="69.674" x2="183.833" y2="69.674"/>
			<polyline style="fill:none;stroke:#FFFFFF;stroke-width:3;stroke-miterlimit:10;" points="189.833,126.341 189.833,95.674 
				222.5,95.674 222.5,126.341 			"/>
			
				<line style="fill:none;stroke:#FFFFFF;stroke-width:3;stroke-miterlimit:10;" x1="184.833" y1="102.675" x2="217.5" y2="102.675"/>
			<path style="fill:none;stroke:#FFFFFF;stroke-width:3;stroke-miterlimit:10;" d="M207.646,90.625c0-12.15,9.85-22,22-22
				s22,9.85,22,22s-9.85,22-22,22"/>
			<path style="fill:none;stroke:#FFFFFF;stroke-width:3;stroke-miterlimit:10;" d="M216.646,90.625c0-7.18,5.82-13,13-13"/>
			<path style="fill:none;stroke:#FFFFFF;stroke-width:3;stroke-miterlimit:10;" d="M242.646,90.625c0,7.18-5.82,13-13,13"/>
		</g>
	</g>
</g>
<g id="Warstwa_1">
</g>
</svg>
