<?xml version="1.0" encoding="iso-8859-1"?>
<!-- Generator: Adobe Illustrator 16.0.0, SVG Export Plug-In . SVG Version: 6.00 Build 0)  -->
<!DOCTYPE svg PUBLIC "-//W3C//DTD SVG 1.1//EN" "http://www.w3.org/Graphics/SVG/1.1/DTD/svg11.dtd">
<svg version="1.1" xmlns="http://www.w3.org/2000/svg" xmlns:xlink="http://www.w3.org/1999/xlink" x="0px" y="0px" width="370px"
	 height="180px" viewBox="0 0 370 180" style="enable-background:new 0 0 370 180;" xml:space="preserve">
<g id="ico_x5F_wspolpraca_x5F_01">
	<g>
		<g>
			<g>
				<polyline style="fill:none;stroke:#FFFFFF;stroke-width:3;stroke-miterlimit:10;" points="212.777,113.531 212.777,149.539 
					102.5,149.539 102.5,39.261 212.777,39.261 212.777,70.621 				"/>
				<circle style="fill:none;stroke:#FFFFFF;stroke-width:3;stroke-miterlimit:10;" cx="167.145" cy="50.668" r="5.704"/>
				<circle style="fill:none;stroke:#FFFFFF;stroke-width:3;stroke-miterlimit:10;" cx="184.257" cy="50.668" r="5.704"/>
				<circle style="fill:none;stroke:#FFFFFF;stroke-width:3;stroke-miterlimit:10;" cx="201.369" cy="50.668" r="5.704"/>
				
					<rect x="102.5" y="39.261" style="fill:none;stroke:#FFFFFF;stroke-width:3;stroke-miterlimit:10;" width="110.277" height="22.816"/>
				<polyline style="fill:none;stroke:#FFFFFF;stroke-width:3;stroke-miterlimit:10;" points="197.566,119.42 197.566,132.427 
					117.71,132.427 117.71,75.386 197.566,75.386 				"/>
				<polyline style="fill:none;stroke:#FFFFFF;stroke-width:3;stroke-miterlimit:10;" points="184.155,94.399 117.71,94.399 
					117.71,75.386 197.566,75.386 197.566,83.56 				"/>
				
					<line style="fill:none;stroke:#FFFFFF;stroke-width:3;stroke-miterlimit:10;" x1="125.315" y1="84.894" x2="140.526" y2="84.894"/>
				
					<line style="fill:none;stroke:#FFFFFF;stroke-width:3;stroke-miterlimit:10;" x1="129.118" y1="105.807" x2="157.638" y2="105.807"/>
				
					<line style="fill:none;stroke:#FFFFFF;stroke-width:3;stroke-miterlimit:10;" x1="129.118" y1="113.414" x2="178.552" y2="113.414"/>
				
					<line style="fill:none;stroke:#FFFFFF;stroke-width:3;stroke-miterlimit:10;" x1="129.118" y1="121.018" x2="178.552" y2="121.018"/>
			</g>
			<g>
				<polygon style="fill:none;stroke:#FFFFFF;stroke-width:3;stroke-miterlimit:10;" points="202.667,114.33 184.155,118.736 
					188.563,100.226 233.518,55.273 247.62,69.375 				"/>
				
					<line style="fill:none;stroke:#FFFFFF;stroke-width:3;stroke-miterlimit:10;" x1="188.563" y1="100.226" x2="196.497" y2="99.345"/>
				
					<line style="fill:none;stroke:#FFFFFF;stroke-width:3;stroke-miterlimit:10;" x1="195.613" y1="107.278" x2="196.497" y2="99.345"/>
				
					<line style="fill:none;stroke:#FFFFFF;stroke-width:3;stroke-miterlimit:10;" x1="195.613" y1="107.278" x2="203.547" y2="106.396"/>
				
					<line style="fill:none;stroke:#FFFFFF;stroke-width:3;stroke-miterlimit:10;" x1="202.667" y1="114.33" x2="203.547" y2="106.396"/>
				
					<line style="fill:none;stroke:#FFFFFF;stroke-width:3;stroke-miterlimit:10;" x1="195.613" y1="107.278" x2="203.547" y2="106.396"/>
				
					<line style="fill:none;stroke:#FFFFFF;stroke-width:3;stroke-miterlimit:10;" x1="184.155" y1="118.736" x2="188.213" y2="114.68"/>
				<path style="fill:none;stroke:#FFFFFF;stroke-width:3;stroke-miterlimit:10;" d="M233.516,55.271
					c3.896-3.894,10.209-3.894,14.105,0c3.893,3.894,3.893,10.21,0,14.104"/>
				
					<line style="fill:none;stroke:#FFFFFF;stroke-width:3;stroke-miterlimit:10;" x1="226.465" y1="62.324" x2="240.568" y2="76.427"/>
				
					<line style="fill:none;stroke:#FFFFFF;stroke-width:3;stroke-miterlimit:10;" x1="229.991" y1="58.797" x2="244.096" y2="72.901"/>
				
					<line style="fill:none;stroke:#FFFFFF;stroke-width:3;stroke-miterlimit:10;" x1="196.497" y1="99.345" x2="224.702" y2="71.139"/>
				
					<line style="fill:none;stroke:#FFFFFF;stroke-width:3;stroke-miterlimit:10;" x1="203.547" y1="106.396" x2="231.754" y2="78.19"/>
			</g>
			
				<line style="fill:none;stroke:#FFFFFF;stroke-width:3;stroke-miterlimit:10;" x1="268.877" y1="71.336" x2="261.51" y2="71.336"/>
			
				<line style="fill:none;stroke:#FFFFFF;stroke-width:3;stroke-miterlimit:10;" x1="260.555" y1="43.677" x2="255.346" y2="48.885"/>
			<line style="fill:none;stroke:#FFFFFF;stroke-width:3;stroke-miterlimit:10;" x1="235.113" y1="30" x2="235.116" y2="37.369"/>
		</g>
	</g>
</g>
<g id="Warstwa_1">
</g>
</svg>
