<?xml version="1.0" encoding="iso-8859-1"?>
<!-- Generator: Adobe Illustrator 16.0.0, SVG Export Plug-In . SVG Version: 6.00 Build 0)  -->
<!DOCTYPE svg PUBLIC "-//W3C//DTD SVG 1.1//EN" "http://www.w3.org/Graphics/SVG/1.1/DTD/svg11.dtd">
<svg version="1.1" xmlns="http://www.w3.org/2000/svg" xmlns:xlink="http://www.w3.org/1999/xlink" x="0px" y="0px" width="370px"
	 height="180px" viewBox="0 0 370 180" style="enable-background:new 0 0 370 180;" xml:space="preserve">
<g id="ico_x5F_oferta_x5F_outsourcing">
	<g>
		<g>
			<path style="fill:none;stroke:#DF3536;stroke-width:3;stroke-miterlimit:10;" d="M184.121,123.574
				c-17.923,0-32.452-14.531-32.452-32.453c0-17.923,14.529-32.453,32.452-32.453c17.922,0,32.452,14.529,32.452,32.453"/>
			<g>
				
					<line style="fill:none;stroke:#2A2766;stroke-width:3;stroke-miterlimit:10;" x1="184.121" y1="76.025" x2="184.121" y2="31.122"/>
				<polyline style="fill:none;stroke:#2A2766;stroke-width:3;stroke-miterlimit:10;" points="172.458,42.907 184.244,31.122 
					195.783,42.663 				"/>
			</g>
			<g>
				
					<line style="fill:none;stroke:#2A2766;stroke-width:3;stroke-miterlimit:10;" x1="193.344" y1="81.898" x2="220.779" y2="54.462"/>
				<polyline style="fill:none;stroke:#2A2766;stroke-width:3;stroke-miterlimit:10;" points="206.453,54.537 220.855,54.537 
					220.854,68.641 				"/>
			</g>
			<g>
				
					<line style="fill:none;stroke:#2A2766;stroke-width:3;stroke-miterlimit:10;" x1="199.215" y1="91.121" x2="244.121" y2="91.121"/>
				<polyline style="fill:none;stroke:#2A2766;stroke-width:3;stroke-miterlimit:10;" points="232.334,79.458 244.121,91.244 
					232.578,102.783 				"/>
			</g>
			<g>
				
					<line style="fill:none;stroke:#2A2766;stroke-width:3;stroke-miterlimit:10;" x1="193.344" y1="100.344" x2="220.779" y2="127.781"/>
				<polyline style="fill:none;stroke:#2A2766;stroke-width:3;stroke-miterlimit:10;" points="220.705,113.455 220.707,127.855 
					206.604,127.854 				"/>
			</g>
			<g>
				
					<line style="fill:none;stroke:#2A2766;stroke-width:3;stroke-miterlimit:10;" x1="184.121" y1="106.217" x2="184.121" y2="151.12"/>
				<polyline style="fill:none;stroke:#2A2766;stroke-width:3;stroke-miterlimit:10;" points="195.783,139.336 183.999,151.122 
					172.458,139.58 				"/>
			</g>
			<g>
				
					<line style="fill:none;stroke:#2A2766;stroke-width:3;stroke-miterlimit:10;" x1="174.898" y1="100.344" x2="147.462" y2="127.781"/>
				<polyline style="fill:none;stroke:#2A2766;stroke-width:3;stroke-miterlimit:10;" points="161.789,127.705 147.387,127.707 
					147.389,113.603 				"/>
			</g>
			<g>
				
					<line style="fill:none;stroke:#2A2766;stroke-width:3;stroke-miterlimit:10;" x1="169.024" y1="91.121" x2="124.122" y2="91.121"/>
				<polyline style="fill:none;stroke:#2A2766;stroke-width:3;stroke-miterlimit:10;" points="135.908,102.785 124.122,91 
					135.662,79.459 				"/>
			</g>
			<g>
				
					<line style="fill:none;stroke:#2A2766;stroke-width:3;stroke-miterlimit:10;" x1="174.898" y1="81.898" x2="147.462" y2="54.462"/>
				<polyline style="fill:none;stroke:#2A2766;stroke-width:3;stroke-miterlimit:10;" points="147.538,68.789 147.536,54.388 
					161.639,54.389 				"/>
			</g>
		</g>
	</g>
</g>
<g id="Warstwa_1">
</g>
</svg>
