<?xml version="1.0" encoding="iso-8859-1"?>
<!-- Generator: Adobe Illustrator 16.0.0, SVG Export Plug-In . SVG Version: 6.00 Build 0)  -->
<!DOCTYPE svg PUBLIC "-//W3C//DTD SVG 1.1//EN" "http://www.w3.org/Graphics/SVG/1.1/DTD/svg11.dtd">
<svg version="1.1" xmlns="http://www.w3.org/2000/svg" xmlns:xlink="http://www.w3.org/1999/xlink" x="0px" y="0px" width="370px"
	 height="180px" viewBox="0 0 370 180" style="enable-background:new 0 0 370 180;" xml:space="preserve">
<g id="ico_x5F_oferta_x5F_promocje">
	<g>
		<g>
			<polyline style="fill:none;stroke:#2A2766;stroke-width:3;stroke-miterlimit:10;" points="233.951,65.656 206.046,85.929 
				216.706,118.73 188.803,98.458 160.899,118.73 165.295,105.202 			"/>
			<polyline style="fill:none;stroke:#2A2766;stroke-width:3;stroke-miterlimit:10;" points="169.383,92.62 171.558,85.929 
				143.654,65.656 178.144,65.656 188.803,32.854 199.46,65.656 			"/>
			<polyline style="fill:none;stroke:#DF3536;stroke-width:3;stroke-miterlimit:10;" points="239.574,120.758 239.574,150.159 
				218.337,133.295 197.104,150.159 197.104,116.434 			"/>
			<polyline style="fill:none;stroke:#DF3536;stroke-width:3;stroke-miterlimit:10;" points="216.464,98.633 239.574,98.633 
				239.574,111.75 			"/>
			
				<line style="fill:none;stroke:#DF3536;stroke-width:3;stroke-miterlimit:10;" x1="150.328" y1="31.55" x2="158.833" y2="40.055"/>
			<line style="fill:none;stroke:#DF3536;stroke-width:3;stroke-miterlimit:10;" x1="128" y1="73.091" x2="140.028" y2="73.091"/>
			
				<line style="fill:none;stroke:#DF3536;stroke-width:3;stroke-miterlimit:10;" x1="141.585" y1="118.254" x2="150.09" y2="109.749"/>
			<circle style="fill:none;stroke:#DF3536;stroke-width:3;stroke-miterlimit:10;" cx="214.822" cy="60.453" r="7.293"/>
			<circle style="fill:none;stroke:#DF3536;stroke-width:3;stroke-miterlimit:10;" cx="233.327" cy="84.899" r="7.294"/>
		</g>
	</g>
</g>
<g id="Warstwa_1">
</g>
</svg>
