<?xml version="1.0" encoding="iso-8859-1"?>
<!-- Generator: Adobe Illustrator 16.0.0, SVG Export Plug-In . SVG Version: 6.00 Build 0)  -->
<!DOCTYPE svg PUBLIC "-//W3C//DTD SVG 1.1//EN" "http://www.w3.org/Graphics/SVG/1.1/DTD/svg11.dtd">
<svg version="1.1" xmlns="http://www.w3.org/2000/svg" xmlns:xlink="http://www.w3.org/1999/xlink" x="0px" y="0px" width="370px"
	 height="180px" viewBox="0 0 370 180" style="enable-background:new 0 0 370 180;" xml:space="preserve">
<g id="ico_x5F_benefity_x5F_ceny">
	<g>
		<g>
			<path style="fill:none;stroke:#DF3536;stroke-width:3;stroke-miterlimit:10;stroke-dasharray:3,6;" d="M139.5,72.26L139.5,72.26
				c0-5.939,4.814-10.753,10.753-10.753h19.971"/>
			<path style="fill:none;stroke:#DF3536;stroke-width:3;stroke-miterlimit:10;stroke-dasharray:3,6;" d="M228.598,83.014h-78.345
				c-5.939,0-10.753-4.814-10.753-10.754"/>
			<path style="fill:none;stroke:#DF3536;stroke-width:3;stroke-miterlimit:10;stroke-dasharray:3,6;" d="M228.598,129.098h-78.345
				c-5.939,0-10.753-4.813-10.753-10.753"/>
			<path style="fill:none;stroke:#2A2766;stroke-width:3;stroke-miterlimit:10;" d="M139.5,66.115v59.677
				c0,5.22,4.23,9.45,9.451,9.45h79.647V76.868h-78.345C144.314,76.868,139.5,72.055,139.5,66.115z"/>
			<path style="fill:none;stroke:#2A2766;stroke-width:3;stroke-miterlimit:10;" d="M228.598,113.735h-18.434
				c-5.092,0-9.217-4.125-9.217-9.217s4.125-9.217,9.217-9.217h18.434V113.735z"/>
			<circle style="fill:none;stroke:#2A2766;stroke-width:3;stroke-miterlimit:10;" cx="211.699" cy="104.518" r="4.608"/>
			<path style="fill:none;stroke:#2A2766;stroke-width:3;stroke-miterlimit:10;" d="M223.178,76.868l0.813-0.81l-29.496-29.496
				c-0.082-0.083-0.217-0.083-0.299,0L164.7,76.059l0.812,0.81H223.178z"/>
			<path style="fill:none;stroke:#2A2766;stroke-width:3;stroke-miterlimit:10;" d="M165.511,76.868l-0.812-0.81l25.265-25.268
				l-4.229-4.229c-0.083-0.083-0.217-0.083-0.302,0L155.94,76.059l0.812,0.81H165.511z"/>
			<polygon style="fill:none;stroke:#2A2766;stroke-width:3;stroke-miterlimit:10;" points="203.295,55.361 223.988,76.059 
				223.178,76.868 228.598,76.868 228.598,55.361 			"/>
			<path style="fill:none;stroke:#2A2766;stroke-width:3;stroke-miterlimit:10;" d="M176.635,55.361h-26.382
				c-5.939,0-10.753,4.814-10.753,10.754c0,5.94,4.814,10.753,10.753,10.753h6.499l-0.812-0.81L176.635,55.361z"/>
			
				<line style="fill:none;stroke:#DF3536;stroke-width:3;stroke-miterlimit:10;stroke-dasharray:3,6;" x1="210.164" y1="61.506" x2="228.598" y2="61.506"/>
			<path style="fill:none;stroke:#2A2766;stroke-width:3;stroke-miterlimit:10;" d="M211.225,76.868l0.477-0.474l-17.268-17.269
				c-0.051-0.051-0.128-0.051-0.178,0l-17.267,17.269l0.475,0.474H211.225L211.225,76.868z"/>
		</g>
	</g>
</g>
<g id="Warstwa_1">
</g>
</svg>
