<?xml version="1.0" encoding="iso-8859-1"?>
<!-- Generator: Adobe Illustrator 16.0.0, SVG Export Plug-In . SVG Version: 6.00 Build 0)  -->
<!DOCTYPE svg PUBLIC "-//W3C//DTD SVG 1.1//EN" "http://www.w3.org/Graphics/SVG/1.1/DTD/svg11.dtd">
<svg version="1.1" xmlns="http://www.w3.org/2000/svg" xmlns:xlink="http://www.w3.org/1999/xlink" x="0px" y="0px" width="370px"
	 height="180px" viewBox="0 0 370 180" style="enable-background:new 0 0 370 180;" xml:space="preserve">
<g id="ico_x5F_kariera_x5F_zatrudnienie">
	<g>
		<g>
			<path style="fill:none;stroke:#DDDDDC;stroke-width:3;stroke-miterlimit:10;" d="M192.979,58.878
				c-0.25-0.026-0.496-0.063-0.74-0.102c-6.258-1.049-11.027-6.489-11.027-13.047c0-7.307,5.924-13.229,13.229-13.229
				c7.307,0,13.228,5.923,13.228,13.229"/>
			<path style="fill:none;stroke:#DDDDDC;stroke-width:3;stroke-miterlimit:10;" d="M135.2,122.21
				c0.173,0.021,0.348,0.045,0.519,0.071c4.403,0.738,7.759,4.568,7.759,9.183c0,5.139-4.167,9.305-9.308,9.305
				c-5.142,0-9.306-4.166-9.306-9.305"/>
			
				<line style="fill:none;stroke:#DDDDDC;stroke-width:3;stroke-miterlimit:10;" x1="173.312" y1="45.698" x2="130.64" y2="45.682"/>
			
				<line style="fill:none;stroke:#DDDDDC;stroke-width:3;stroke-miterlimit:10;" x1="244.694" y1="59.932" x2="232.034" y2="59.927"/>
			
				<line style="fill:none;stroke:#DDDDDC;stroke-width:3;stroke-miterlimit:10;" x1="242.635" y1="125.566" x2="222.51" y2="125.557"/>
			<path style="fill:none;stroke:#2A2766;stroke-width:3;stroke-miterlimit:10;" d="M182.681,146.63c0,0-1.685,1.686-3.373,1.686
				c-2.798,0-5.07-2.268-5.07-5.063c0-1.691,1.689-3.379,1.689-3.379"/>
			
				<line style="fill:none;stroke:#DF3536;stroke-width:3;stroke-miterlimit:10;" x1="168.839" y1="81.348" x2="199.27" y2="81.348"/>
			<polyline style="fill:none;stroke:#DF3536;stroke-width:3;stroke-miterlimit:10;" points="224.569,104.986 219.503,110.057 
				219.503,113.43 212.748,120.189 			"/>
			
				<line style="fill:none;stroke:#2A2766;stroke-width:3;stroke-miterlimit:10;" x1="190.789" y1="113.43" x2="209.365" y2="132.011"/>
			<path style="fill:none;stroke:#2A2766;stroke-width:3;stroke-miterlimit:10;" d="M212.748,121.876c0,0,1.688,1.688,1.688,3.379
				c0,2.795-2.271,5.063-5.069,5.063c-1.683,0-3.373-1.688-3.373-1.688"/>
			<path style="fill:none;stroke:#2A2766;stroke-width:3;stroke-miterlimit:10;" d="M209.365,132.011c0,0,1.689,1.688,1.689,3.375
				c0,2.799-2.27,5.063-5.063,5.063c-1.688,0-3.379-1.687-3.379-1.687l-18.576-18.573"/>
			<path style="fill:none;stroke:#2A2766;stroke-width:3;stroke-miterlimit:10;" d="M200.928,137.074c0,0,1.687,1.688,1.687,3.374
				c0,2.803-2.271,5.073-5.067,5.073c-1.688,0-3.378-1.69-3.378-1.69l-16.885-16.89"/>
			<path style="fill:none;stroke:#2A2766;stroke-width:3;stroke-miterlimit:10;" d="M190.789,140.448c0,0,1.691,1.688,1.691,3.383
				c0,2.797-2.268,5.063-5.066,5.063c-1.688,0-3.377-1.688-3.377-1.688l-30.396-30.396v-5.066l-6.756-6.758"/>
			<path style="fill:none;stroke:#2A2766;stroke-width:3;stroke-miterlimit:10;" d="M162.086,126.941c0,0-1.688,1.688-3.379,1.688
				c-2.8,0-5.065-2.269-5.065-5.063c0-1.689,1.689-3.375,1.689-3.375"/>
			<path style="fill:none;stroke:#2A2766;stroke-width:3;stroke-miterlimit:10;" d="M168.839,133.699c0,0-1.689,1.687-3.38,1.687
				c-2.794,0-5.061-2.271-5.061-5.065c0-1.689,1.688-3.377,1.688-3.377"/>
			<path style="fill:none;stroke:#2A2766;stroke-width:3;stroke-miterlimit:10;" d="M175.593,140.448c0,0-1.689,1.688-3.373,1.688
				c-2.797,0-5.07-2.266-5.07-5.063c0-1.689,1.689-3.375,1.689-3.375"/>
			<path style="fill:none;stroke:#DF3536;stroke-width:3;stroke-miterlimit:10;" d="M194.678,103.805l-3.889-3.883v-10.13h-5.063
				l-8.443,8.442c0,0-1.69,1.688-3.38,1.688c-2.797,0-5.064-2.271-5.064-5.063c0-1.689,1.688-3.377,1.688-3.377l9.525-9.462"/>
			<path style="fill:none;stroke:#464646;stroke-linecap:round;stroke-miterlimit:10;" d="M224.569,93.169"/>
			<path style="fill:none;stroke:#2A2766;stroke-width:3;stroke-miterlimit:10;" d="M178.972,125.255"/>
			<path style="fill:none;stroke:#2A2766;stroke-width:3;stroke-miterlimit:10;" d="M175.593,128.63"/>
			<g>
				
					<rect x="198.53" y="72.576" transform="matrix(0.7071 0.7071 -0.7071 0.7071 125.1934 -131.7711)" style="fill:none;stroke:#DF3536;stroke-width:3;stroke-miterlimit:10;" width="46.254" height="25.318"/>
			</g>
			<g>
				<g>
					<path style="fill:none;stroke:#DF3536;stroke-width:3;stroke-miterlimit:10;" d="M226.82,93.673
						c0,1.862,1.511,3.373,3.369,3.373c1.865,0,3.375-1.511,3.375-3.373c0-1.858-1.51-3.367-3.375-3.367
						C228.331,90.306,226.82,91.813,226.82,93.673L226.82,93.673z"/>
				</g>
			</g>
			<g>
				
					<rect x="125.298" y="71.211" transform="matrix(-0.7071 0.7072 -0.7072 -0.7071 312.683 38.2095)" style="fill:none;stroke:#2A2766;stroke-width:3;stroke-miterlimit:10;" width="46.259" height="25.319"/>
			</g>
			<g>
				<g>
					<g>
						<path style="fill:none;stroke:#2A2766;stroke-width:3;stroke-miterlimit:10;" d="M139.985,89.04
							c-1.864,0-3.376,1.511-3.376,3.371c0,1.865,1.512,3.377,3.376,3.377c1.861,0,3.368-1.512,3.368-3.377
							C143.353,90.551,141.847,89.04,139.985,89.04L139.985,89.04z"/>
					</g>
				</g>
			</g>
			
				<line style="fill:none;stroke:#2A2766;stroke-width:3;stroke-miterlimit:10;" x1="194.273" y1="103.402" x2="212.85" y2="121.98"/>
		</g>
	</g>
</g>
<g id="Warstwa_1">
</g>
</svg>
