<?xml version="1.0" encoding="iso-8859-1"?>
<!-- Generator: Adobe Illustrator 16.0.0, SVG Export Plug-In . SVG Version: 6.00 Build 0)  -->
<!DOCTYPE svg PUBLIC "-//W3C//DTD SVG 1.1//EN" "http://www.w3.org/Graphics/SVG/1.1/DTD/svg11.dtd">
<svg version="1.1" xmlns="http://www.w3.org/2000/svg" xmlns:xlink="http://www.w3.org/1999/xlink" x="0px" y="0px" width="370px"
	 height="180px" viewBox="0 0 370 180" style="enable-background:new 0 0 370 180;" xml:space="preserve">
<g id="ico_x5F_wspolpraca_x5F_06">
	<g>
		<g>
			
				<line style="fill:none;stroke:#2A2766;stroke-width:3;stroke-miterlimit:10;" x1="217.939" y1="81.171" x2="238.343" y2="60.674"/>
			<path style="fill:none;stroke:#2A2766;stroke-width:3;stroke-miterlimit:10;" d="M149.587,60.675l41.529,41.726
				c1.604,1.494,4.092,1.494,5.696,0l14.658-14.73"/>
			<polyline style="fill:none;stroke:#2A2766;stroke-width:3;stroke-miterlimit:10;" points="190.527,123.414 237.641,123.414 
				238.146,123.414 238.343,123.414 238.343,123.218 238.343,60.832 238.343,60.674 149.587,60.674 149.587,60.832 149.587,123.218 
				149.587,123.414 149.785,123.414 172.528,123.414 			"/>
			<path style="fill:none;stroke:#2A2766;stroke-width:3;stroke-miterlimit:10;" d="M151.16,122.22
				c-0.646,0.487-1.572,0.028-1.572-0.781V62.649c0-0.809,0.927-1.268,1.572-0.777l30.563,30.937l-21.986,21.156"/>
			<path style="fill:none;stroke:#2A2766;stroke-width:3;stroke-miterlimit:10;" d="M206.208,92.809l30.563,29.41
				c0.646,0.488,1.571,0.029,1.571-0.781V62.649c0-0.809-0.926-1.268-1.571-0.777"/>
			<path style="fill:none;stroke:#2A2766;stroke-width:3;stroke-miterlimit:10;" d="M236.311,60.674l-5.541-20.68l-0.041-0.155
				l-76.275,20.439c-0.227,0.062-0.184,0.396,0.053,0.396H236.311z"/>
			
				<line style="fill:none;stroke:#2A2766;stroke-width:3;stroke-miterlimit:10;" x1="223.152" y1="52.959" x2="211.329" y2="56.127"/>
			
				<line style="fill:none;stroke:#2A2766;stroke-width:3;stroke-miterlimit:10;" x1="221.581" y1="47.869" x2="203.755" y2="52.644"/>
			<path style="fill:none;stroke:#2A2766;stroke-width:3;stroke-miterlimit:10;" d="M154.453,60.278l44.21-11.846h-44.485v0.16
				v12.082h0.325C154.269,60.674,154.226,60.338,154.453,60.278z"/>
			<g>
				
					<line style="fill:none;stroke:#DF3536;stroke-width:3;stroke-miterlimit:10;" x1="151.962" y1="140.986" x2="178.701" y2="140.986"/>
				
					<line style="fill:none;stroke:#DF3536;stroke-width:3;stroke-miterlimit:10;" x1="128" y1="130.521" x2="147.745" y2="130.521"/>
				
					<line style="fill:none;stroke:#DF3536;stroke-width:3;stroke-miterlimit:10;" x1="119" y1="100.009" x2="131.792" y2="100.009"/>
				<line style="fill:none;stroke:#DF3536;stroke-width:3;stroke-miterlimit:10;" x1="96" y1="116.535" x2="124.636" y2="116.535"/>
			</g>
			<g>
				
					<line style="fill:none;stroke:#DF3536;stroke-width:3;stroke-miterlimit:10;" x1="256.45" y1="98.777" x2="273.335" y2="98.777"/>
				
					<line style="fill:none;stroke:#DF3536;stroke-width:3;stroke-miterlimit:10;" x1="243.988" y1="88.314" x2="256.456" y2="88.314"/>
				
					<line style="fill:none;stroke:#DF3536;stroke-width:3;stroke-miterlimit:10;" x1="201.331" y1="82.243" x2="209.407" y2="82.243"/>
				
					<line style="fill:none;stroke:#DF3536;stroke-width:3;stroke-miterlimit:10;" x1="189.118" y1="69.338" x2="207.197" y2="69.338"/>
			</g>
		</g>
	</g>
</g>
<g id="Warstwa_1">
</g>
</svg>
