<?xml version="1.0" encoding="iso-8859-1"?>
<!-- Generator: Adobe Illustrator 16.0.0, SVG Export Plug-In . SVG Version: 6.00 Build 0)  -->
<!DOCTYPE svg PUBLIC "-//W3C//DTD SVG 1.1//EN" "http://www.w3.org/Graphics/SVG/1.1/DTD/svg11.dtd">
<svg version="1.1" xmlns="http://www.w3.org/2000/svg" xmlns:xlink="http://www.w3.org/1999/xlink" x="0px" y="0px" width="370px"
	 height="180px" viewBox="0 0 370 180" style="enable-background:new 0 0 370 180;" xml:space="preserve">
<g id="ico_x5F_kategoria_x5F_gry">
	<g>
		<g>
			<path style="fill:none;stroke:#2A2766;stroke-width:3;stroke-miterlimit:10;" d="M162.492,75.5c20.108,0,18.104-11,30.078-11
				c23.099,0,30.687,70.249,8.06,70.249c-22.627,0-8.586-17-38.381-17h0.244c-29.795,0-15.755,17-38.382,17
				S109.071,64.5,132.169,64.5c11.974,0,9.97,11,30.079,11H162.492z"/>
			<path style="fill:none;stroke:#2A2766;stroke-width:3;stroke-miterlimit:10;" d="M187.912,104.046
				c0,5.479-4.44,9.922-9.922,9.922c-5.479,0-9.921-4.44-9.921-9.922s4.441-9.922,9.921-9.922
				C183.471,94.124,187.912,98.564,187.912,104.046"/>
			<path style="fill:none;stroke:#2A2766;stroke-width:3;stroke-miterlimit:10;" d="M140.671,84.046c0,5.48-4.44,9.922-9.922,9.922
				c-5.479,0-9.921-4.441-9.921-9.922c0-5.48,4.441-9.921,9.921-9.921C136.23,74.124,140.671,78.566,140.671,84.046"/>
			<g>
				<circle style="fill:none;stroke:#DF3536;stroke-width:3;stroke-miterlimit:10;" cx="146.749" cy="104.046" r="9.921"/>
				
					<line style="fill:none;stroke:#DF3536;stroke-width:3;stroke-miterlimit:10;" x1="146.75" y1="99.085" x2="146.75" y2="109.007"/>
				
					<line style="fill:none;stroke:#DF3536;stroke-width:3;stroke-miterlimit:10;" x1="151.709" y1="104.046" x2="141.787" y2="104.046"/>
			</g>
			<g>
				<circle style="fill:none;stroke:#DF3536;stroke-width:3;stroke-miterlimit:10;" cx="193.99" cy="84.1" r="9.921"/>
				
					<line style="fill:none;stroke:#DF3536;stroke-width:3;stroke-miterlimit:10;" x1="189.031" y1="83.273" x2="189.031" y2="84.926"/>
				
					<line style="fill:none;stroke:#DF3536;stroke-width:3;stroke-miterlimit:10;" x1="198.951" y1="83.273" x2="198.951" y2="84.926"/>
				
					<line style="fill:none;stroke:#DF3536;stroke-width:3;stroke-miterlimit:10;" x1="193.99" y1="78.312" x2="193.99" y2="79.966"/>
				
					<line style="fill:none;stroke:#DF3536;stroke-width:3;stroke-miterlimit:10;" x1="193.99" y1="88.234" x2="193.99" y2="89.887"/>
			</g>
			
				<line style="fill:none;stroke:#DF3536;stroke-width:3;stroke-miterlimit:10;" x1="159.177" y1="53.461" x2="167.578" y2="45.061"/>
			
				<line style="fill:none;stroke:#DF3536;stroke-width:3;stroke-miterlimit:10;" x1="159.177" y1="63.961" x2="163.377" y2="59.76"/>
			
				<line style="fill:none;stroke:#DF3536;stroke-width:3;stroke-miterlimit:10;" x1="167.578" y1="55.561" x2="167.578" y2="55.561"/>
			
				<line style="fill:none;stroke:#DF3536;stroke-width:3;stroke-miterlimit:10;" x1="171.777" y1="51.361" x2="178.078" y2="45.061"/>
			<polyline style="fill:none;stroke:#2A2766;stroke-width:3;stroke-miterlimit:10;" points="196.806,56.499 196.806,49.461 
				258.807,49.461 258.807,108.419 221.473,108.419 			"/>
			<path style="fill:none;stroke:#2A2766;stroke-width:3;stroke-miterlimit:10;" d="M204.507,111.419"/>
			<polygon style="fill:none;stroke:#DF3536;stroke-width:3;stroke-miterlimit:10;" points="222.81,67.292 234.458,78.94 
				222.81,90.588 			"/>
			<g>
				
					<rect x="202.806" y="55.085" style="fill:none;stroke:#2A2766;stroke-width:3;stroke-miterlimit:10;" width="7.813" height="7.813"/>
			</g>
			<g>
				
					<rect x="244.993" y="55.085" style="fill:none;stroke:#2A2766;stroke-width:3;stroke-miterlimit:10;" width="7.813" height="7.813"/>
				
					<rect x="244.993" y="68.384" style="fill:none;stroke:#2A2766;stroke-width:3;stroke-miterlimit:10;" width="7.813" height="7.814"/>
				
					<rect x="244.993" y="81.683" style="fill:none;stroke:#2A2766;stroke-width:3;stroke-miterlimit:10;" width="7.813" height="7.813"/>
				
					<rect x="244.993" y="94.98" style="fill:none;stroke:#2A2766;stroke-width:3;stroke-miterlimit:10;" width="7.813" height="7.813"/>
			</g>
		</g>
	</g>
</g>
<g id="Warstwa_1">
</g>
</svg>
