<?xml version="1.0" encoding="iso-8859-1"?>
<!-- Generator: Adobe Illustrator 16.0.0, SVG Export Plug-In . SVG Version: 6.00 Build 0)  -->
<!DOCTYPE svg PUBLIC "-//W3C//DTD SVG 1.1//EN" "http://www.w3.org/Graphics/SVG/1.1/DTD/svg11.dtd">
<svg version="1.1" xmlns="http://www.w3.org/2000/svg" xmlns:xlink="http://www.w3.org/1999/xlink" x="0px" y="0px" width="370px"
	 height="180px" viewBox="0 0 370 180" style="enable-background:new 0 0 370 180;" xml:space="preserve">
<g id="ico_x5F_benefity_x5F_projekty">
	<g>
		<g>
			<path style="fill:none;stroke:#2A2766;stroke-width:3;stroke-miterlimit:10;" d="M229.879,88.859v45.028
				c0,1.994-1.617,3.612-3.613,3.612h-83.534c-1.994,0-3.612-1.618-3.612-3.612V88.859l-1.62-0.556V72.887
				c0-6.384,5.174-11.56,11.557-11.56h70.882c6.386,0,11.562,5.176,11.562,11.56v15.416L229.879,88.859z"/>
			
				<rect x="163.43" y="56.465" style="fill:none;stroke:#2A2766;stroke-width:3;stroke-miterlimit:10;" width="12.966" height="4.862"/>
			
				<rect x="192.604" y="56.465" style="fill:none;stroke:#2A2766;stroke-width:3;stroke-miterlimit:10;" width="12.965" height="4.862"/>
			<path style="fill:none;stroke:#2A2766;stroke-width:3;stroke-miterlimit:10;" d="M195.844,52.323v4.142h6.482v-3.422
				c0-5.271-4.273-9.543-9.545-9.543h-16.565c-5.272,0-9.544,4.272-9.544,9.543v3.422h6.483v-4.142c0-1.803,1.83-3.028,3.498-2.341
				c5.023,2.076,10.667,2.076,15.691,0C194.012,49.295,195.844,50.521,195.844,52.323z"/>
			
				<rect x="205.568" y="122.914" style="fill:none;stroke:#DF3536;stroke-width:3;stroke-miterlimit:10;" width="16.207" height="6.482"/>
			<polygon style="fill:none;stroke:#2A2766;stroke-width:3;stroke-miterlimit:10;" points="186.119,113.189 182.879,113.189 
				178.017,108.327 178.017,103.465 190.982,103.465 190.982,108.327 			"/>
			
				<rect x="173.155" y="84.017" style="fill:none;stroke:#2A2766;stroke-width:3;stroke-miterlimit:10;" width="22.689" height="19.448"/>
			
				<rect x="178.017" y="61.327" style="fill:none;stroke:#2A2766;stroke-width:3;stroke-miterlimit:10;" width="12.965" height="22.689"/>
			<path style="fill:none;stroke:#2A2766;stroke-width:3;stroke-miterlimit:10;" d="M137.5,88.303l9.692,3.343
				c8.966,3.09,16.793,4.47,25.963,5.203V84.017h22.689V96.83c8.791-0.823,17.506-2.27,25.961-5.184l9.695-3.343"/>
			<line style="fill:none;stroke:#2A2766;stroke-width:3;stroke-miterlimit:10;" x1="184.5" y1="95.361" x2="184.5" y2="98.604"/>
			
				<rect x="181.258" y="88.879" style="fill:none;stroke:#2A2766;stroke-width:3;stroke-miterlimit:10;" width="6.482" height="6.482"/>
		</g>
	</g>
</g>
<g id="Warstwa_1">
</g>
</svg>
