<?xml version="1.0" encoding="iso-8859-1"?>
<!-- Generator: Adobe Illustrator 16.0.0, SVG Export Plug-In . SVG Version: 6.00 Build 0)  -->
<!DOCTYPE svg PUBLIC "-//W3C//DTD SVG 1.1//EN" "http://www.w3.org/Graphics/SVG/1.1/DTD/svg11.dtd">
<svg version="1.1" xmlns="http://www.w3.org/2000/svg" xmlns:xlink="http://www.w3.org/1999/xlink" x="0px" y="0px" width="370px"
	 height="180px" viewBox="0 0 370 180" style="enable-background:new 0 0 370 180;" xml:space="preserve">
<g id="ico_x5F_kariera_x5F_aplikacja">
	<g>
		<g>
			<g>
				
					<line style="fill:none;stroke:#2A2766;stroke-width:3;stroke-miterlimit:10;" x1="155.136" y1="136.596" x2="176.701" y2="136.596"/>
				
					<line style="fill:none;stroke:#2A2766;stroke-width:3;stroke-miterlimit:10;" x1="135.81" y1="126.131" x2="151.734" y2="126.131"/>
				
					<line style="fill:none;stroke:#2A2766;stroke-width:3;stroke-miterlimit:10;" x1="128.551" y1="95.617" x2="138.867" y2="95.617"/>
				
					<line style="fill:none;stroke:#2A2766;stroke-width:3;stroke-miterlimit:10;" x1="110" y1="112.143" x2="133.096" y2="112.143"/>
			</g>
			<path style="fill:none;stroke:#2A2766;stroke-width:3;stroke-miterlimit:10;" d="M153.81,140.908V87.784
				c0-0.956,1.093-1.5,1.855-0.92l36.067,27.481l-36.067,27.482C154.903,142.406,153.81,141.865,153.81,140.908z"/>
			<path style="fill:none;stroke:#2A2766;stroke-width:3;stroke-miterlimit:10;" d="M258.55,140.908V87.784
				c0-0.956-1.096-1.5-1.854-0.92l-36.068,27.481l36.068,27.482C257.455,142.406,258.55,141.865,258.55,140.908z"/>
			
				<line style="fill:none;stroke:#2A2766;stroke-width:3;stroke-miterlimit:10;" x1="189.927" y1="114.348" x2="220.627" y2="114.348"/>
			
				<line style="fill:none;stroke:#DF3536;stroke-width:3;stroke-miterlimit:10;" x1="178.694" y1="51.606" x2="189.529" y2="51.606"/>
			
				<line style="fill:none;stroke:#DF3536;stroke-width:3;stroke-miterlimit:10;" x1="215.766" y1="84.856" x2="226.602" y2="84.856"/>
			
				<line style="fill:none;stroke:#DF3536;stroke-width:3;stroke-miterlimit:10;" x1="178.694" y1="60.856" x2="194.725" y2="60.856"/>
			
				<line style="fill:none;stroke:#DF3536;stroke-width:3;stroke-miterlimit:10;" x1="179.736" y1="74.106" x2="192.377" y2="74.106"/>
			<line style="fill:none;stroke:#DF3536;stroke-width:3;stroke-miterlimit:10;" x1="200.763" y1="69.2" x2="200.763" y2="69.2"/>
			
				<line style="fill:none;stroke:#DF3536;stroke-width:3;stroke-miterlimit:10;" x1="178.694" y1="84.856" x2="196.754" y2="84.856"/>
			<line style="fill:none;stroke:#DF3536;stroke-width:3;stroke-miterlimit:10;" x1="184.51" y1="83.646" x2="184.51" y2="83.646"/>
			<line style="fill:none;stroke:#2A2766;stroke-width:3;stroke-miterlimit:10;" x1="227.852" y1="69.2" x2="227.852" y2="69.2"/>
			
				<line style="fill:none;stroke:#DF3536;stroke-width:3;stroke-miterlimit:10;" x1="178.694" y1="94.855" x2="187.725" y2="94.855"/>
			
				<line style="fill:none;stroke:#DF3536;stroke-width:3;stroke-miterlimit:10;" x1="214.306" y1="94.855" x2="226.947" y2="94.855"/>
			
				<line style="fill:none;stroke:#DF3536;stroke-width:3;stroke-miterlimit:10;" x1="214.306" y1="74.106" x2="226.947" y2="74.106"/>
			
				<line style="fill:none;stroke:#DF3536;stroke-width:3;stroke-miterlimit:10;" x1="200.763" y1="100.094" x2="200.763" y2="100.094"/>
			
				<line style="fill:none;stroke:#2A2766;stroke-width:3;stroke-miterlimit:10;" x1="227.852" y1="98.094" x2="227.852" y2="98.094"/>
			<polyline style="fill:none;stroke:#2A2766;stroke-width:3;stroke-miterlimit:10;" points="164.645,75.363 153.81,85.45 
				153.81,85.641 153.81,143.008 153.81,143.24 154.043,143.24 257.722,143.24 258.318,143.24 258.55,143.24 258.55,143.008 
				258.55,85.641 258.55,85.45 247.714,75.363 			"/>
			<polyline style="fill:none;stroke:#2A2766;stroke-width:3;stroke-miterlimit:10;" points="247.714,93.708 220.627,114.348 
				191.734,114.348 164.645,93.708 			"/>
			<polyline style="fill:none;stroke:#DF3536;stroke-width:3;stroke-miterlimit:10;" points="247.714,87.19 247.714,38.5 
				164.645,38.5 164.645,65.204 			"/>
		</g>
	</g>
</g>
<g id="Warstwa_1">
</g>
</svg>
