<?xml version="1.0" encoding="iso-8859-1"?>
<!-- Generator: Adobe Illustrator 16.0.0, SVG Export Plug-In . SVG Version: 6.00 Build 0)  -->
<!DOCTYPE svg PUBLIC "-//W3C//DTD SVG 1.1//EN" "http://www.w3.org/Graphics/SVG/1.1/DTD/svg11.dtd">
<svg version="1.1" xmlns="http://www.w3.org/2000/svg" xmlns:xlink="http://www.w3.org/1999/xlink" x="0px" y="0px" width="370px"
	 height="180px" viewBox="0 0 370 180" style="enable-background:new 0 0 370 180;" xml:space="preserve">
<g id="ico_x5F_kategoria_x5F_dom">
	<g>
		<g>
			
				<rect x="104.5" y="130.828" style="fill:none;stroke:#2A2766;stroke-width:3;stroke-miterlimit:10;" width="23.159" height="6.617"/>
			
				<rect x="175.633" y="130.828" style="fill:none;stroke:#2A2766;stroke-width:3;stroke-miterlimit:10;" width="23.159" height="6.617"/>
			<polygon style="fill:none;stroke:#2A2766;stroke-width:3;stroke-miterlimit:10;" points="182.25,130.828 182.25,86.164 
				122.697,86.164 122.697,130.828 127.659,130.828 127.659,137.447 175.633,137.447 175.633,130.828 			"/>
			<polygon style="fill:none;stroke:#2A2766;stroke-width:3;stroke-miterlimit:10;" points="104.5,61.351 104.5,69.622 
				112.77,69.622 112.77,130.828 127.659,130.828 127.659,137.447 175.633,137.447 175.633,130.828 192.176,130.828 192.176,69.622 
				200.446,69.622 200.446,61.351 			"/>
			
				<rect x="112.77" y="117.595" style="fill:none;stroke:#2A2766;stroke-width:3;stroke-miterlimit:10;" width="9.927" height="6.617"/>
			
				<rect x="112.77" y="104.361" style="fill:none;stroke:#2A2766;stroke-width:3;stroke-miterlimit:10;" width="9.927" height="6.616"/>
			
				<rect x="112.77" y="91.127" style="fill:none;stroke:#2A2766;stroke-width:3;stroke-miterlimit:10;" width="9.927" height="6.617"/>
			
				<rect x="182.25" y="117.595" style="fill:none;stroke:#2A2766;stroke-width:3;stroke-miterlimit:10;" width="9.926" height="6.617"/>
			
				<rect x="182.25" y="104.361" style="fill:none;stroke:#2A2766;stroke-width:3;stroke-miterlimit:10;" width="9.926" height="6.616"/>
			
				<rect x="182.25" y="91.127" style="fill:none;stroke:#2A2766;stroke-width:3;stroke-miterlimit:10;" width="9.926" height="6.617"/>
			
				<rect x="134.56" y="69.905" transform="matrix(-0.7071 -0.7071 0.7071 -0.7071 184.9574 225.7798)" style="fill:none;stroke:#2A2766;stroke-width:3;stroke-miterlimit:10;" width="9.358" height="9.358"/>
			
				<rect x="147.794" y="69.91" transform="matrix(-0.7071 -0.7072 0.7072 -0.7071 207.534 235.1506)" style="fill:none;stroke:#2A2766;stroke-width:3;stroke-miterlimit:10;" width="9.358" height="9.357"/>
			
				<rect x="161.029" y="69.911" transform="matrix(-0.7071 -0.7072 0.7072 -0.7071 230.1261 244.51)" style="fill:none;stroke:#2A2766;stroke-width:3;stroke-miterlimit:10;" width="9.357" height="9.357"/>
			
				<line style="fill:none;stroke:#2A2766;stroke-width:3;stroke-miterlimit:10;" x1="112.77" y1="69.622" x2="122.697" y2="69.622"/>
			
				<line style="fill:none;stroke:#2A2766;stroke-width:3;stroke-miterlimit:10;" x1="182.25" y1="69.622" x2="192.176" y2="69.622"/>
			<path style="fill:none;stroke:#DF3536;stroke-width:3;stroke-miterlimit:10;" d="M164.892,110.779l-3.902-4.447
				c-0.54,4.916-1.945,8.701-1.945,8.701c0-6.486-2.336-12.254-5.334-16.994l-0.479-0.545l-3.809,4.341
				c-4.919,5.601-7.006,13.206-5.391,20.478c0.016,0.064,0.03,0.129,0.044,0.193c0,0-2.955-4.182-4.299-9.352
				c-3.667,5.854-3.167,13.551,1.521,18.889c6.279,7.154,17.383,7.205,23.731,0.152C170.474,126.152,170.258,116.89,164.892,110.779
				z"/>
			<path style="fill:none;stroke:#DF3536;stroke-width:3;stroke-miterlimit:10;" d="M167.097,61.351h-5.428
				c-0.395,0-0.632-0.439-0.41-0.769l9.265-13.9c0.092-0.137,0.247-0.219,0.412-0.219h5.428c0.394,0,0.629,0.439,0.41,0.769
				l-9.265,13.899C167.416,61.268,167.262,61.351,167.097,61.351z"/>
			
				<rect x="177.287" y="41.5" style="fill:none;stroke:#DF3536;stroke-width:3;stroke-miterlimit:10;" width="6.617" height="19.851"/>
			
				<rect x="183.904" y="44.808" style="fill:none;stroke:#DF3536;stroke-width:3;stroke-miterlimit:10;" width="6.615" height="16.542"/>
			<path style="fill:none;stroke:#DF3536;stroke-width:3;stroke-miterlimit:10;" d="M129.313,54.734h-23.159
				c1.829,0,6.616,1.48,6.616,3.309v3.308h9.927v-3.308C122.697,56.214,127.485,54.734,129.313,54.734z"/>
			<path style="fill:none;stroke:#DF3536;stroke-width:3;stroke-miterlimit:10;" d="M157.436,54.734h-23.159
				c1.828,0,6.616,1.48,6.616,3.309v3.308h9.925v-3.308C150.818,56.214,155.607,54.734,157.436,54.734z"/>
			<path style="fill:none;stroke:#2A2766;stroke-width:3;stroke-miterlimit:10;" d="M200.487,130.966h5.821h46.703h12.561v-14.353
				V98.525c0-0.91-0.795-1.649-1.705-1.649h-9.26c-0.91,0-1.596,0.739-1.596,1.649v18.088h-46.649V98.669
				c0-0.911-0.884-1.794-1.794-1.794h-8.971"/>
			<path style="fill:none;stroke:#2A2766;stroke-width:3;stroke-miterlimit:10;" d="M206.362,98.669v17.942h46.649V98.527
				c0-0.912,0.686-1.651,1.596-1.651h5.582l-11.963-25.794c0-1.609-1.306-2.914-2.912-2.914h-31.311
				c-1.607,0-2.91,1.305-2.857,2.914l-11.961,25.794h5.383C205.479,96.875,206.362,97.758,206.362,98.669z"/>
			
				<rect x="206.362" y="105.847" style="fill:none;stroke:#2A2766;stroke-width:3;stroke-miterlimit:10;" width="46.649" height="10.767"/>
			
				<rect x="258.395" y="130.966" style="fill:none;stroke:#2A2766;stroke-width:3;stroke-miterlimit:10;" width="7.178" height="8.972"/>
			<line style="fill:none;stroke:#DF3536;stroke-width:3;stroke-miterlimit:10;" x1="217.725" y1="76.54" x2="241.648" y2="76.54"/>
			
				<line style="fill:none;stroke:#DF3536;stroke-width:3;stroke-miterlimit:10;" x1="217.725" y1="85.312" x2="241.648" y2="85.312"/>
			
				<line style="fill:none;stroke:#DF3536;stroke-width:3;stroke-miterlimit:10;" x1="217.725" y1="94.085" x2="241.648" y2="94.085"/>
		</g>
	</g>
</g>
<g id="Warstwa_1">
</g>
</svg>
