<?xml version="1.0" encoding="iso-8859-1"?>
<!-- Generator: Adobe Illustrator 16.0.0, SVG Export Plug-In . SVG Version: 6.00 Build 0)  -->
<!DOCTYPE svg PUBLIC "-//W3C//DTD SVG 1.1//EN" "http://www.w3.org/Graphics/SVG/1.1/DTD/svg11.dtd">
<svg version="1.1" xmlns="http://www.w3.org/2000/svg" xmlns:xlink="http://www.w3.org/1999/xlink" x="0px" y="0px" width="370px"
	 height="180px" viewBox="0 0 370 180" style="enable-background:new 0 0 370 180;" xml:space="preserve">
<g id="ico_x5F_wspolpraca_x5F_03">
	<g>
		<g>
			<path style="fill:none;stroke:#2A2766;stroke-width:3;stroke-miterlimit:10;" d="M132.381,140.905V87.782
				c0-0.956,1.094-1.499,1.855-0.92l36.067,27.481l-36.067,27.482C133.474,142.402,132.381,141.86,132.381,140.905z"/>
			<path style="fill:none;stroke:#2A2766;stroke-width:3;stroke-miterlimit:10;" d="M237.119,140.905V87.782
				c0-0.956-1.094-1.499-1.855-0.92l-36.065,27.481l36.065,27.482C236.026,142.402,237.119,141.86,237.119,140.905z"/>
			
				<line style="fill:none;stroke:#2A2766;stroke-width:3;stroke-miterlimit:10;" x1="168.497" y1="114.344" x2="199.198" y2="114.344"/>
			
				<line style="fill:none;stroke:#DF3536;stroke-width:3;stroke-miterlimit:10;" x1="179.333" y1="69.197" x2="190.168" y2="69.197"/>
			
				<line style="fill:none;stroke:#DF3536;stroke-width:3;stroke-miterlimit:10;" x1="195.586" y1="98.092" x2="206.42" y2="98.092"/>
			
				<line style="fill:none;stroke:#DF3536;stroke-width:3;stroke-miterlimit:10;" x1="163.08" y1="83.644" x2="172.109" y2="83.644"/>
			
				<line style="fill:none;stroke:#DF3536;stroke-width:3;stroke-miterlimit:10;" x1="186.555" y1="83.644" x2="199.198" y2="83.644"/>
			
				<line style="fill:none;stroke:#2A2766;stroke-width:3;stroke-miterlimit:10;" x1="179.333" y1="83.644" x2="179.333" y2="83.644"/>
			
				<line style="fill:none;stroke:#DF3536;stroke-width:3;stroke-miterlimit:10;" x1="170.303" y1="98.092" x2="188.362" y2="98.092"/>
			<line style="fill:none;stroke:#2A2766;stroke-width:3;stroke-miterlimit:10;" x1="163.08" y1="98.092" x2="163.08" y2="98.092"/>
			<line style="fill:none;stroke:#2A2766;stroke-width:3;stroke-miterlimit:10;" x1="206.42" y1="83.644" x2="206.42" y2="83.644"/>
			<polyline style="fill:none;stroke:#2A2766;stroke-width:3;stroke-miterlimit:10;" points="143.217,93.704 170.303,114.344 
				199.198,114.344 226.285,93.704 226.285,69.197 			"/>
			<polyline style="fill:none;stroke:#2A2766;stroke-width:3;stroke-miterlimit:10;" points="209.576,54.75 143.217,54.75 
				143.217,83.354 			"/>
			<path style="fill:none;stroke:#2A2766;stroke-width:3;stroke-miterlimit:10;" d="M204.147,54.75l-16.035-14.928
				c-1.896-1.763-4.829-1.763-6.725,0L165.353,54.75H204.147z"/>
			<polyline style="fill:none;stroke:#2A2766;stroke-width:3;stroke-miterlimit:10;" points="143.217,75.361 132.381,85.449 
				132.381,85.639 132.381,143.005 132.381,143.236 132.613,143.236 153.206,143.236 			"/>
			<polyline style="fill:none;stroke:#2A2766;stroke-width:3;stroke-miterlimit:10;" points="168.286,143.236 236.291,143.236 
				236.887,143.236 237.119,143.236 237.119,143.005 237.119,85.639 237.119,85.449 226.285,75.361 226.285,93.704 199.198,114.344 
				170.303,114.344 143.217,93.704 			"/>
			<g>
				<polyline style="fill:none;stroke:#DF3536;stroke-width:3;stroke-miterlimit:10;" points="234.328,51.258 210.742,74.846 
					199.067,63.17 				"/>
			</g>
			<g>
				
					<line style="fill:none;stroke:#2A2766;stroke-width:3;stroke-miterlimit:10;" x1="246.408" y1="80.225" x2="254.631" y2="80.225"/>
				
					<line style="fill:none;stroke:#2A2766;stroke-width:3;stroke-miterlimit:10;" x1="253.608" y1="101.559" x2="267.356" y2="101.559"/>
				
					<line style="fill:none;stroke:#2A2766;stroke-width:3;stroke-miterlimit:10;" x1="250.52" y1="127.559" x2="260.116" y2="127.559"/>
				
					<line style="fill:none;stroke:#2A2766;stroke-width:3;stroke-miterlimit:10;" x1="116.978" y1="67.382" x2="128.042" y2="67.382"/>
				<line style="fill:none;stroke:#2A2766;stroke-width:3;stroke-miterlimit:10;" x1="101" y1="86.225" x2="117.641" y2="86.225"/>
				
					<line style="fill:none;stroke:#2A2766;stroke-width:3;stroke-miterlimit:10;" x1="113.701" y1="107.559" x2="122.511" y2="107.559"/>
			</g>
		</g>
	</g>
</g>
<g id="Warstwa_1">
</g>
</svg>
