<?xml version="1.0" encoding="iso-8859-1"?>
<!-- Generator: Adobe Illustrator 16.0.0, SVG Export Plug-In . SVG Version: 6.00 Build 0)  -->
<!DOCTYPE svg PUBLIC "-//W3C//DTD SVG 1.1//EN" "http://www.w3.org/Graphics/SVG/1.1/DTD/svg11.dtd">
<svg version="1.1" xmlns="http://www.w3.org/2000/svg" xmlns:xlink="http://www.w3.org/1999/xlink" x="0px" y="0px" width="370px"
	 height="180px" viewBox="0 0 370 180" style="enable-background:new 0 0 370 180;" xml:space="preserve">
<g id="ico_x5F_oferta_x5F_warunki">
	<g>
		<g>
			<path style="fill:none;stroke:#2A2766;stroke-width:3;stroke-miterlimit:10;" d="M217.582,90.815
				c0,17.922-14.531,32.452-32.454,32.452s-32.452-14.529-32.452-32.452s14.53-32.453,32.453-32.453"/>
			<path style="fill:none;stroke:#2A2766;stroke-width:3;stroke-miterlimit:10;" d="M159.919,90.814
				c0-13.923,11.288-25.209,25.21-25.209c13.924,0,25.209,11.287,25.209,25.209s-11.285,25.21-25.209,25.21"/>
			<g>
				<path style="fill:none;stroke:#DF3536;stroke-width:3;stroke-miterlimit:10;" d="M185.129,100.649
					c2.842,0,5.148-2.305,5.148-5.147c0-2.844-2.308-5.147-5.148-5.147c-2.843,0-5.148-2.305-5.148-5.148
					c0-2.843,2.305-5.148,5.148-5.148"/>
				
					<line style="fill:none;stroke:#DF3536;stroke-width:3;stroke-miterlimit:10;" x1="185.129" y1="76.757" x2="185.129" y2="104.873"/>
				
					<line style="fill:none;stroke:#DF3536;stroke-width:3;stroke-miterlimit:10;" x1="185.129" y1="100.649" x2="179.981" y2="100.649"/>
				
					<line style="fill:none;stroke:#DF3536;stroke-width:3;stroke-miterlimit:10;" x1="185.129" y1="80.058" x2="190.277" y2="80.058"/>
			</g>
			<g>
				<g>
					<path style="fill:none;stroke:#2A2766;stroke-width:3;stroke-miterlimit:10;" d="M222.135,57.158
						c13.181,14.691,15.935,35.104,8.752,52.165"/>
					<polyline style="fill:none;stroke:#2A2766;stroke-width:3;stroke-miterlimit:10;" points="219.514,70.042 222.348,57.397 
						234.731,60.173 					"/>
				</g>
				<g>
					<path style="fill:none;stroke:#DF3536;stroke-width:3;stroke-miterlimit:10;" d="M150.159,53.124
						c14.691-13.181,35.105-15.935,52.165-8.753"/>
					<polyline style="fill:none;stroke:#DF3536;stroke-width:3;stroke-miterlimit:10;" points="163.043,55.745 150.398,52.909 
						153.174,40.525 					"/>
				</g>
				<g>
					<path style="fill:none;stroke:#2A2766;stroke-width:3;stroke-miterlimit:10;" d="M146.124,125.099
						c-13.182-14.692-15.935-35.104-8.754-52.164"/>
					<polyline style="fill:none;stroke:#2A2766;stroke-width:3;stroke-miterlimit:10;" points="148.745,112.214 145.91,124.859 
						133.526,122.083 					"/>
				</g>
				<g>
					<path style="fill:none;stroke:#DF3536;stroke-width:3;stroke-miterlimit:10;" d="M218.101,129.134
						c-14.691,13.182-35.105,15.935-52.166,8.754"/>
					<polyline style="fill:none;stroke:#DF3536;stroke-width:3;stroke-miterlimit:10;" points="205.215,126.513 217.859,129.348 
						215.084,141.731 					"/>
				</g>
			</g>
		</g>
	</g>
</g>
<g id="Warstwa_1">
</g>
</svg>
