<?xml version="1.0" encoding="iso-8859-1"?>
<!-- Generator: Adobe Illustrator 16.0.0, SVG Export Plug-In . SVG Version: 6.00 Build 0)  -->
<!DOCTYPE svg PUBLIC "-//W3C//DTD SVG 1.1//EN" "http://www.w3.org/Graphics/SVG/1.1/DTD/svg11.dtd">
<svg version="1.1" xmlns="http://www.w3.org/2000/svg" xmlns:xlink="http://www.w3.org/1999/xlink" x="0px" y="0px" width="370px"
	 height="180px" viewBox="0 0 370 180" style="enable-background:new 0 0 370 180;" xml:space="preserve">
<g id="ico_x5F_kariera_x5F_rozmowa">
	<g>
		<g>
			
				<line style="fill:none;stroke:#DDDDDC;stroke-width:3;stroke-miterlimit:10;" x1="138.536" y1="92.145" x2="164.221" y2="92.145"/>
			
				<line style="fill:none;stroke:#DDDDDC;stroke-width:3;stroke-miterlimit:10;" x1="148.734" y1="108.157" x2="161.803" y2="108.157"/>
			<line style="fill:none;stroke:#DDDDDC;stroke-width:3;stroke-miterlimit:10;" x1="143" y1="119.846" x2="166.254" y2="119.846"/>
			<line style="fill:none;stroke:#DDDDDC;stroke-width:3;stroke-miterlimit:10;" x1="111" y1="57.255" x2="134.254" y2="57.255"/>
			
				<line style="fill:none;stroke:#DDDDDC;stroke-width:3;stroke-miterlimit:10;" x1="208.287" y1="86.625" x2="219.773" y2="86.625"/>
			
				<line style="fill:none;stroke:#DDDDDC;stroke-width:3;stroke-miterlimit:10;" x1="218.345" y1="101.252" x2="237.552" y2="101.252"/>
			
				<line style="fill:none;stroke:#DDDDDC;stroke-width:3;stroke-miterlimit:10;" x1="212.781" y1="108.157" x2="226.186" y2="108.157"/>
			
				<line style="fill:none;stroke:#DDDDDC;stroke-width:3;stroke-miterlimit:10;" x1="232.615" y1="51.907" x2="246.021" y2="51.907"/>
			
				<line style="fill:none;stroke:#DDDDDC;stroke-width:3;stroke-miterlimit:10;" x1="241.447" y1="63.049" x2="254.854" y2="63.049"/>
			<circle style="fill:none;stroke:#2A2766;stroke-width:3;stroke-miterlimit:10;" cx="160.793" cy="42.71" r="10.21"/>
			<path style="fill:none;stroke:#2A2766;stroke-width:3;stroke-miterlimit:10;" d="M141.355,77.259
				c0-10.735,8.702-19.438,19.438-19.438c10.735,0,19.438,8.702,19.438,19.438"/>
			<path style="fill:none;stroke:#2A2766;stroke-width:3;stroke-miterlimit:10;" d="M195.041,77.259
				c0-10.735,8.703-19.438,19.439-19.438c10.733,0,19.438,8.702,19.438,19.438"/>
			<circle style="fill:none;stroke:#2A2766;stroke-width:3;stroke-miterlimit:10;" cx="214.479" cy="42.71" r="10.21"/>
			<path style="fill:none;stroke:#DF3536;stroke-width:3;stroke-miterlimit:10;" d="M160.97,149.814
				c0-14.727,11.938-26.665,26.667-26.665c14.727,0,26.666,11.938,26.666,26.665"/>
			<circle style="fill:none;stroke:#DF3536;stroke-width:3;stroke-miterlimit:10;" cx="187.636" cy="102.419" r="14.007"/>
			<polyline style="fill:none;stroke:#2A2766;stroke-width:3;stroke-miterlimit:10;" points="237.554,76.397 255.386,76.397 
				239.386,135.407 224.302,135.407 			"/>
			
				<line style="fill:none;stroke:#2A2766;stroke-width:3;stroke-miterlimit:10;" x1="183.802" y1="76.397" x2="191.468" y2="76.397"/>
			
				<line style="fill:none;stroke:#2A2766;stroke-width:3;stroke-miterlimit:10;" x1="200.57" y1="76.397" x2="228.388" y2="76.397"/>
			
				<line style="fill:none;stroke:#2A2766;stroke-width:3;stroke-miterlimit:10;" x1="146.884" y1="76.397" x2="174.702" y2="76.397"/>
			<polyline style="fill:none;stroke:#2A2766;stroke-width:3;stroke-miterlimit:10;" points="150.97,135.407 135.886,135.407 
				119.886,76.397 136.221,76.397 			"/>
		</g>
	</g>
</g>
<g id="Warstwa_1">
</g>
</svg>
