<?xml version="1.0" encoding="iso-8859-1"?>
<!-- Generator: Adobe Illustrator 16.0.0, SVG Export Plug-In . SVG Version: 6.00 Build 0)  -->
<!DOCTYPE svg PUBLIC "-//W3C//DTD SVG 1.1//EN" "http://www.w3.org/Graphics/SVG/1.1/DTD/svg11.dtd">
<svg version="1.1" xmlns="http://www.w3.org/2000/svg" xmlns:xlink="http://www.w3.org/1999/xlink" x="0px" y="0px" width="370px"
	 height="180px" viewBox="0 0 370 180" style="enable-background:new 0 0 370 180;" xml:space="preserve">
<g id="ico_x5F_benefity_x5F_celebracja">
	<g>
		<g>
			<path style="fill:none;stroke:#2A2766;stroke-width:3;stroke-miterlimit:10;" d="M198.633,118.142l-12.905-12.907
				c-1.117-1.117-1.117-2.947,0-4.063l1.026-1.027c1.117-1.119,2.947-1.119,4.064,0l12.907,12.906c1.114,1.117,1.114,2.948,0,4.064
				l-1.029,1.027C201.582,119.257,199.751,119.257,198.633,118.142z"/>
			<path style="fill:none;stroke:#2A2766;stroke-width:3;stroke-miterlimit:10;" d="M179.843,141.931c1.358,0,2.474-1.082,2.5-2.44
				c0.03-1.373,0.019-2.85-0.034-3.642c-0.134-2.083,0.537-4.136,2.014-5.61l13.796-12.61l-11.879-11.88l-12.61,12.608
				c-1.484,1.484-3.547,2.144-5.643,2.012c-9.307-0.58-23.707,11.634-33.451,21.346c-0.08,0.082-0.019,0.218,0.096,0.218h7.806
				L179.843,141.931L179.843,141.931z"/>
			
				<line style="fill:none;stroke:#2A2766;stroke-width:3;stroke-miterlimit:10;" x1="172.646" y1="120.852" x2="182.228" y2="130.433"/>
			<path style="fill:none;stroke:#2A2766;stroke-width:3;stroke-miterlimit:10;" d="M219.172,66.871l-8.525-4.37
				c-1.695-0.868-2.12-3.099-0.868-4.53l7.859-9.112l8.527,4.368l-2.807,11.703C222.926,66.785,220.868,67.739,219.172,66.871z"/>
			<path style="fill:none;stroke:#2A2766;stroke-width:3;stroke-miterlimit:10;" d="M214.666,47.334
				c-1.233-0.631-1.553-2.274-0.629-3.311c3.116-3.496,8.31-4.597,12.674-2.36c4.36,2.236,6.501,7.095,5.482,11.668
				c-0.301,1.355-1.818,2.053-3.055,1.421L214.666,47.334z"/>
			<path style="fill:none;stroke:#2A2766;stroke-width:3;stroke-miterlimit:10;" d="M207.139,109.354c0,0,8.303-7.665,21.079-5.749"
				/>
			
				<line style="fill:none;stroke:#2A2766;stroke-width:3;stroke-miterlimit:10;" x1="201.391" y1="103.604" x2="207.139" y2="97.855"/>
			<path style="fill:none;stroke:#DF3536;stroke-width:3;stroke-miterlimit:10;" d="M195.642,97.855c0,0,6.229-9.26,0-19.163"/>
			<circle style="fill:none;stroke:#2A2766;stroke-width:3;stroke-miterlimit:10;" cx="211.93" cy="125.642" r="4.791"/>
			<circle style="fill:none;stroke:#DF3536;stroke-width:3;stroke-miterlimit:10;" cx="229.177" cy="114.145" r="4.791"/>
			<circle style="fill:none;stroke:#DF3536;stroke-width:3;stroke-miterlimit:10;" cx="181.27" cy="89.233" r="4.791"/>
			<path style="fill:none;stroke:#2A2766;stroke-width:3;stroke-miterlimit:10;" d="M230.135,127.559
				c0,1.587-1.288,2.874-2.875,2.874s-2.874-1.287-2.874-2.874s1.287-2.875,2.874-2.875S230.135,125.972,230.135,127.559"/>
			<path style="fill:none;stroke:#DF3536;stroke-width:3;stroke-miterlimit:10;" d="M220.553,137.14
				c0,1.587-1.286,2.875-2.874,2.875c-1.587,0-2.875-1.288-2.875-2.875s1.288-2.874,2.875-2.874
				C219.267,134.266,220.553,135.553,220.553,137.14"/>
			<path style="fill:none;stroke:#DF3536;stroke-width:3;stroke-miterlimit:10;" d="M168.813,87.316
				c0,1.587-1.287,2.875-2.874,2.875c-1.588,0-2.875-1.288-2.875-2.875s1.287-2.874,2.875-2.874
				C167.526,84.442,168.813,85.729,168.813,87.316"/>
			<path style="fill:none;stroke:#2A2766;stroke-width:3;stroke-miterlimit:10;" d="M174.563,102.646
				c0,1.587-1.287,2.874-2.875,2.874c-1.586,0-2.874-1.287-2.874-2.874s1.288-2.875,2.874-2.875
				C173.275,99.771,174.563,101.06,174.563,102.646"/>
			<path style="fill:none;stroke:#DF3536;stroke-width:3;stroke-miterlimit:10;" d="M203.306,137.14
				c0,1.587-1.286,2.875-2.873,2.875c-1.588,0-2.874-1.288-2.874-2.875s1.286-2.874,2.874-2.874
				C202.02,134.266,203.306,135.553,203.306,137.14"/>
		</g>
	</g>
</g>
<g id="Warstwa_1">
</g>
</svg>
