<?xml version="1.0" encoding="iso-8859-1"?>
<!-- Generator: Adobe Illustrator 16.0.0, SVG Export Plug-In . SVG Version: 6.00 Build 0)  -->
<!DOCTYPE svg PUBLIC "-//W3C//DTD SVG 1.1//EN" "http://www.w3.org/Graphics/SVG/1.1/DTD/svg11.dtd">
<svg version="1.1" xmlns="http://www.w3.org/2000/svg" xmlns:xlink="http://www.w3.org/1999/xlink" x="0px" y="0px" width="370px"
	 height="180px" viewBox="0 0 370 180" style="enable-background:new 0 0 370 180;" xml:space="preserve">
<g id="ico_x5F_wspolpraca_x5F_04">
	<g>
		<g>
			<polyline style="fill:none;stroke:#2A2766;stroke-width:3;stroke-miterlimit:10;" points="167.173,47.299 250.332,47.299 
				250.332,157.574 140.057,157.574 140.057,81.583 			"/>
			<circle style="fill:none;stroke:#2A2766;stroke-width:3;stroke-miterlimit:10;" cx="203.337" cy="58.706" r="5.705"/>
			<circle style="fill:none;stroke:#2A2766;stroke-width:3;stroke-miterlimit:10;" cx="220.449" cy="58.706" r="5.704"/>
			<circle style="fill:none;stroke:#2A2766;stroke-width:3;stroke-miterlimit:10;" cx="237.561" cy="58.706" r="5.705"/>
			<polyline style="fill:none;stroke:#2A2766;stroke-width:3;stroke-miterlimit:10;" points="167.173,70.116 250.332,70.116 
				250.332,47.299 			"/>
			
				<rect x="147.661" y="87.228" style="fill:none;stroke:#2A2766;stroke-width:3;stroke-miterlimit:10;" width="26.618" height="38.025"/>
			
				<rect x="147.661" y="87.228" style="fill:none;stroke:#2A2766;stroke-width:3;stroke-miterlimit:10;" width="26.618" height="9.504"/>
			
				<rect x="216.109" y="87.228" style="fill:none;stroke:#2A2766;stroke-width:3;stroke-miterlimit:10;" width="26.617" height="38.025"/>
			
				<rect x="216.109" y="87.228" style="fill:none;stroke:#2A2766;stroke-width:3;stroke-miterlimit:10;" width="26.617" height="9.504"/>
			
				<rect x="181.886" y="79.621" style="fill:none;stroke:#2A2766;stroke-width:3;stroke-miterlimit:10;" width="26.617" height="53.236"/>
			
				<rect x="181.886" y="79.621" style="fill:none;stroke:#2A2766;stroke-width:3;stroke-miterlimit:10;" width="26.617" height="9.506"/>
			
				<rect x="153.366" y="111.943" style="fill:none;stroke:#2A2766;stroke-width:3;stroke-miterlimit:10;" width="15.21" height="7.605"/>
			
				<rect x="187.59" y="119.551" style="fill:none;stroke:#2A2766;stroke-width:3;stroke-miterlimit:10;" width="15.209" height="7.604"/>
			
				<rect x="221.813" y="111.943" style="fill:none;stroke:#2A2766;stroke-width:3;stroke-miterlimit:10;" width="15.209" height="7.605"/>
			
				<line style="fill:none;stroke:#DF3536;stroke-width:3;stroke-miterlimit:10;" x1="147.661" y1="140.465" x2="174.279" y2="140.465"/>
			
				<line style="fill:none;stroke:#DF3536;stroke-width:3;stroke-miterlimit:10;" x1="147.661" y1="146.17" x2="174.279" y2="146.17"/>
			
				<line style="fill:none;stroke:#DF3536;stroke-width:3;stroke-miterlimit:10;" x1="181.886" y1="140.465" x2="208.503" y2="140.465"/>
			
				<line style="fill:none;stroke:#DF3536;stroke-width:3;stroke-miterlimit:10;" x1="181.886" y1="146.17" x2="208.503" y2="146.17"/>
			
				<line style="fill:none;stroke:#DF3536;stroke-width:3;stroke-miterlimit:10;" x1="216.109" y1="140.465" x2="242.729" y2="140.465"/>
			
				<line style="fill:none;stroke:#DF3536;stroke-width:3;stroke-miterlimit:10;" x1="216.109" y1="146.17" x2="242.729" y2="146.17"/>
			
				<line style="fill:none;stroke:#2A2766;stroke-width:3;stroke-miterlimit:10;" x1="183.787" y1="89.127" x2="193.293" y2="79.621"/>
			
				<line style="fill:none;stroke:#2A2766;stroke-width:3;stroke-miterlimit:10;" x1="193.293" y1="89.127" x2="202.799" y2="79.621"/>
			
				<line style="fill:none;stroke:#2A2766;stroke-width:3;stroke-miterlimit:10;" x1="202.799" y1="89.127" x2="208.503" y2="83.424"/>
			<g>
				
					<rect x="119.5" y="47.151" style="fill:none;stroke:#DF3536;stroke-width:3;stroke-miterlimit:10;" width="41.112" height="28.604"/>
				<path style="fill:none;stroke:#DF3536;stroke-width:3;stroke-miterlimit:10;" d="M125.804,38.752
					c0-7.871,6.381-14.252,14.252-14.252c7.872,0,14.253,6.381,14.253,14.252v8.398"/>
				<path style="fill:none;stroke:#DF3536;stroke-width:3;stroke-miterlimit:10;" d="M125.804,47.151"/>
				<g>
					<path style="fill:none;stroke:#DF3536;stroke-width:3;stroke-miterlimit:10;" d="M143.141,60.475
						c1.855-1.854,1.855-4.863,0-6.718c-1.854-1.854-4.863-1.854-6.719,0c-1.854,1.854-1.854,4.863,0,6.718l1.061,2.345
						c-1.269,1.269-1.269,3.329,0,4.599c1.27,1.269,3.329,1.269,4.6,0c1.269-1.27,1.269-3.33,0-4.599L143.141,60.475z"/>
				</g>
			</g>
		</g>
	</g>
</g>
<g id="Warstwa_1">
</g>
</svg>
