<?xml version="1.0" encoding="iso-8859-1"?>
<!-- Generator: Adobe Illustrator 16.0.0, SVG Export Plug-In . SVG Version: 6.00 Build 0)  -->
<!DOCTYPE svg PUBLIC "-//W3C//DTD SVG 1.1//EN" "http://www.w3.org/Graphics/SVG/1.1/DTD/svg11.dtd">
<svg version="1.1" xmlns="http://www.w3.org/2000/svg" xmlns:xlink="http://www.w3.org/1999/xlink" x="0px" y="0px" width="370px"
	 height="180px" viewBox="0 0 370 180" style="enable-background:new 0 0 370 180;" xml:space="preserve">
<g id="ico_x5F_kategoria_x5F_elektronika">
	<g>
		<g>
			<path style="fill:none;stroke:#2A2766;stroke-width:3;stroke-miterlimit:10;" d="M158.396,110.227V70.64
				c0-3.445,2.793-6.243,6.242-6.243h39.586c3.447,0,6.244,2.798,6.244,6.243v39.586c0,3.444-2.797,6.242-6.244,6.242h-39.585
				C161.19,116.469,158.396,113.671,158.396,110.227z"/>
			
				<rect x="169.556" y="56.958" style="fill:none;stroke:#2A2766;stroke-width:3;stroke-miterlimit:10;" width="29.756" height="7.438"/>
			
				<rect x="169.556" y="116.469" style="fill:none;stroke:#2A2766;stroke-width:3;stroke-miterlimit:10;" width="29.756" height="7.438"/>
			
				<rect x="210.471" y="75.555" style="fill:none;stroke:#2A2766;stroke-width:3;stroke-miterlimit:10;" width="7.438" height="29.755"/>
			
				<rect x="150.957" y="75.555" style="fill:none;stroke:#2A2766;stroke-width:3;stroke-miterlimit:10;" width="7.439" height="29.755"/>
			
				<line style="fill:none;stroke:#2A2766;stroke-width:3;stroke-miterlimit:10;" x1="145.378" y1="79.275" x2="150.957" y2="79.275"/>
			
				<line style="fill:none;stroke:#2A2766;stroke-width:3;stroke-miterlimit:10;" x1="145.378" y1="101.592" x2="150.957" y2="101.592"/>
			
				<line style="fill:none;stroke:#2A2766;stroke-width:3;stroke-miterlimit:10;" x1="145.378" y1="94.153" x2="150.957" y2="94.153"/>
			
				<line style="fill:none;stroke:#2A2766;stroke-width:3;stroke-miterlimit:10;" x1="145.378" y1="86.713" x2="150.957" y2="86.713"/>
			
				<line style="fill:none;stroke:#2A2766;stroke-width:3;stroke-miterlimit:10;" x1="217.91" y1="79.275" x2="223.488" y2="79.275"/>
			
				<line style="fill:none;stroke:#2A2766;stroke-width:3;stroke-miterlimit:10;" x1="217.91" y1="101.592" x2="223.488" y2="101.592"/>
			
				<line style="fill:none;stroke:#2A2766;stroke-width:3;stroke-miterlimit:10;" x1="217.91" y1="94.153" x2="223.488" y2="94.153"/>
			
				<line style="fill:none;stroke:#2A2766;stroke-width:3;stroke-miterlimit:10;" x1="217.91" y1="86.713" x2="223.488" y2="86.713"/>
			
				<line style="fill:none;stroke:#2A2766;stroke-width:3;stroke-miterlimit:10;" x1="195.592" y1="51.378" x2="195.592" y2="56.958"/>
			
				<line style="fill:none;stroke:#2A2766;stroke-width:3;stroke-miterlimit:10;" x1="173.274" y1="51.378" x2="173.274" y2="56.958"/>
			
				<line style="fill:none;stroke:#2A2766;stroke-width:3;stroke-miterlimit:10;" x1="180.714" y1="51.378" x2="180.714" y2="56.958"/>
			
				<line style="fill:none;stroke:#2A2766;stroke-width:3;stroke-miterlimit:10;" x1="188.154" y1="51.378" x2="188.154" y2="56.958"/>
			
				<line style="fill:none;stroke:#2A2766;stroke-width:3;stroke-miterlimit:10;" x1="195.592" y1="123.908" x2="195.592" y2="129.488"/>
			
				<line style="fill:none;stroke:#2A2766;stroke-width:3;stroke-miterlimit:10;" x1="173.274" y1="123.908" x2="173.274" y2="129.488"/>
			
				<line style="fill:none;stroke:#2A2766;stroke-width:3;stroke-miterlimit:10;" x1="180.714" y1="123.908" x2="180.714" y2="129.488"/>
			
				<line style="fill:none;stroke:#2A2766;stroke-width:3;stroke-miterlimit:10;" x1="188.154" y1="123.908" x2="188.154" y2="129.488"/>
			
				<line style="fill:none;stroke:#2A2766;stroke-width:3;stroke-miterlimit:10;" x1="232.787" y1="68.116" x2="238.367" y2="68.116"/>
			
				<line style="fill:none;stroke:#2A2766;stroke-width:3;stroke-miterlimit:10;" x1="232.787" y1="73.695" x2="238.367" y2="73.695"/>
			
				<line style="fill:none;stroke:#2A2766;stroke-width:3;stroke-miterlimit:10;" x1="232.787" y1="79.275" x2="238.367" y2="79.275"/>
			
				<line style="fill:none;stroke:#2A2766;stroke-width:3;stroke-miterlimit:10;" x1="232.787" y1="84.854" x2="238.367" y2="84.854"/>
			
				<line style="fill:none;stroke:#2A2766;stroke-width:3;stroke-miterlimit:10;" x1="232.787" y1="90.433" x2="238.367" y2="90.433"/>
			
				<line style="fill:none;stroke:#2A2766;stroke-width:3;stroke-miterlimit:10;" x1="232.787" y1="96.012" x2="238.367" y2="96.012"/>
			
				<line style="fill:none;stroke:#2A2766;stroke-width:3;stroke-miterlimit:10;" x1="232.787" y1="101.592" x2="238.367" y2="101.592"/>
			
				<line style="fill:none;stroke:#2A2766;stroke-width:3;stroke-miterlimit:10;" x1="232.787" y1="107.17" x2="238.367" y2="107.17"/>
			
				<line style="fill:none;stroke:#2A2766;stroke-width:3;stroke-miterlimit:10;" x1="232.787" y1="112.75" x2="238.367" y2="112.75"/>
			
				<line style="fill:none;stroke:#DF3536;stroke-width:3;stroke-miterlimit:10;" x1="162.866" y1="132.352" x2="162.866" y2="140.647"/>
			
				<line style="fill:none;stroke:#DF3536;stroke-width:3;stroke-miterlimit:10;" x1="157.287" y1="132.352" x2="157.287" y2="140.647"/>
			
				<line style="fill:none;stroke:#DF3536;stroke-width:3;stroke-miterlimit:10;" x1="151.708" y1="132.352" x2="151.708" y2="140.647"/>
			
				<line style="fill:none;stroke:#DF3536;stroke-width:3;stroke-miterlimit:10;" x1="146.129" y1="132.352" x2="146.129" y2="140.647"/>
			
				<line style="fill:none;stroke:#DF3536;stroke-width:3;stroke-miterlimit:10;" x1="140.549" y1="132.352" x2="140.549" y2="140.647"/>
			
				<line style="fill:none;stroke:#DF3536;stroke-width:3;stroke-miterlimit:10;" x1="143.513" y1="125.102" x2="135.218" y2="125.102"/>
			
				<line style="fill:none;stroke:#DF3536;stroke-width:3;stroke-miterlimit:10;" x1="143.513" y1="119.102" x2="135.218" y2="119.102"/>
			<path style="fill:none;stroke:#DF3536;stroke-width:3;stroke-miterlimit:10;" d="M232.611,134.43
				c0,2.307-1.879,4.182-4.182,4.182c-2.314,0-4.188-1.875-4.188-4.182c0-2.313,1.873-4.188,4.188-4.188
				C230.732,130.241,232.611,132.118,232.611,134.43"/>
			<path style="fill:none;stroke:#DF3536;stroke-width:3;stroke-miterlimit:10;" d="M232.611,45.803
				c0,2.307-1.879,4.182-4.182,4.182c-2.314,0-4.188-1.875-4.188-4.182c0-2.312,1.873-4.188,4.188-4.188
				C230.732,41.614,232.611,43.491,232.611,45.803"/>
			<path style="fill:none;stroke:#DF3536;stroke-width:3;stroke-miterlimit:10;" d="M144.733,45.803
				c0,2.307-1.878,4.182-4.182,4.182c-2.314,0-4.187-1.875-4.187-4.182c0-2.312,1.872-4.188,4.187-4.188
				C142.855,41.614,144.733,43.491,144.733,45.803"/>
			<path style="fill:none;stroke:#2A2766;stroke-width:3;stroke-miterlimit:10;" d="M229.999,36.5h-13.95
				c0,4.108-3.33,7.439-7.439,7.439c-4.108,0-7.438-3.331-7.438-7.439h-62.305c-4.621,0-8.366,3.745-8.366,8.367v10.23h7.439v7.439
				H130.5v73.461c0,4.622,3.745,8.368,8.366,8.368h62.305c0-4.109,3.33-7.438,7.438-7.438c4.107,0,7.439,3.328,7.439,7.438h13.95
				c4.621,0,8.367-3.746,8.367-8.368v-91.13C238.367,40.246,234.621,36.5,229.999,36.5z"/>
			<g>
				
					<line style="fill:none;stroke:#DF3536;stroke-width:3;stroke-miterlimit:10;" x1="167.458" y1="74.198" x2="167.458" y2="79.135"/>
				
					<line style="fill:none;stroke:#DF3536;stroke-width:3;stroke-miterlimit:10;" x1="175.945" y1="74.198" x2="175.945" y2="79.135"/>
				
					<line style="fill:none;stroke:#DF3536;stroke-width:3;stroke-miterlimit:10;" x1="184.433" y1="74.198" x2="184.433" y2="79.135"/>
				
					<line style="fill:none;stroke:#DF3536;stroke-width:3;stroke-miterlimit:10;" x1="192.921" y1="74.198" x2="192.921" y2="79.135"/>
				
					<line style="fill:none;stroke:#DF3536;stroke-width:3;stroke-miterlimit:10;" x1="201.408" y1="74.198" x2="201.408" y2="79.135"/>
				
					<line style="fill:none;stroke:#DF3536;stroke-width:3;stroke-miterlimit:10;" x1="171.577" y1="80.987" x2="171.577" y2="85.924"/>
				
					<line style="fill:none;stroke:#DF3536;stroke-width:3;stroke-miterlimit:10;" x1="180.064" y1="80.987" x2="180.064" y2="85.924"/>
				
					<line style="fill:none;stroke:#DF3536;stroke-width:3;stroke-miterlimit:10;" x1="188.553" y1="80.987" x2="188.553" y2="85.924"/>
				
					<line style="fill:none;stroke:#DF3536;stroke-width:3;stroke-miterlimit:10;" x1="197.04" y1="80.987" x2="197.04" y2="85.924"/>
				
					<line style="fill:none;stroke:#DF3536;stroke-width:3;stroke-miterlimit:10;" x1="167.458" y1="87.963" x2="167.458" y2="92.9"/>
				
					<line style="fill:none;stroke:#DF3536;stroke-width:3;stroke-miterlimit:10;" x1="175.945" y1="87.963" x2="175.945" y2="92.9"/>
				
					<line style="fill:none;stroke:#DF3536;stroke-width:3;stroke-miterlimit:10;" x1="184.433" y1="87.963" x2="184.433" y2="92.9"/>
				
					<line style="fill:none;stroke:#DF3536;stroke-width:3;stroke-miterlimit:10;" x1="192.921" y1="87.963" x2="192.921" y2="92.9"/>
				
					<line style="fill:none;stroke:#DF3536;stroke-width:3;stroke-miterlimit:10;" x1="201.408" y1="87.963" x2="201.408" y2="92.9"/>
				
					<line style="fill:none;stroke:#DF3536;stroke-width:3;stroke-miterlimit:10;" x1="171.577" y1="94.752" x2="171.577" y2="99.689"/>
				
					<line style="fill:none;stroke:#DF3536;stroke-width:3;stroke-miterlimit:10;" x1="180.064" y1="94.752" x2="180.064" y2="99.689"/>
				
					<line style="fill:none;stroke:#DF3536;stroke-width:3;stroke-miterlimit:10;" x1="188.553" y1="94.752" x2="188.553" y2="99.689"/>
				
					<line style="fill:none;stroke:#DF3536;stroke-width:3;stroke-miterlimit:10;" x1="197.04" y1="94.752" x2="197.04" y2="99.689"/>
				
					<line style="fill:none;stroke:#DF3536;stroke-width:3;stroke-miterlimit:10;" x1="167.458" y1="101.73" x2="167.458" y2="106.667"/>
				
					<line style="fill:none;stroke:#DF3536;stroke-width:3;stroke-miterlimit:10;" x1="175.945" y1="101.73" x2="175.945" y2="106.667"/>
				
					<line style="fill:none;stroke:#DF3536;stroke-width:3;stroke-miterlimit:10;" x1="184.433" y1="101.73" x2="184.433" y2="106.667"/>
				
					<line style="fill:none;stroke:#DF3536;stroke-width:3;stroke-miterlimit:10;" x1="192.921" y1="101.73" x2="192.921" y2="106.667"/>
				
					<line style="fill:none;stroke:#DF3536;stroke-width:3;stroke-miterlimit:10;" x1="201.408" y1="101.73" x2="201.408" y2="106.667"/>
			</g>
		</g>
	</g>
</g>
<g id="Warstwa_1">
</g>
</svg>
