<?xml version="1.0" encoding="iso-8859-1"?>
<!-- Generator: Adobe Illustrator 16.0.0, SVG Export Plug-In . SVG Version: 6.00 Build 0)  -->
<!DOCTYPE svg PUBLIC "-//W3C//DTD SVG 1.1//EN" "http://www.w3.org/Graphics/SVG/1.1/DTD/svg11.dtd">
<svg version="1.1" xmlns="http://www.w3.org/2000/svg" xmlns:xlink="http://www.w3.org/1999/xlink" x="0px" y="0px" width="370px"
	 height="180px" viewBox="0 0 370 180" style="enable-background:new 0 0 370 180;" xml:space="preserve">
<g id="ico_x5F_wspolpraca_x5F_05">
	<g>
		<g>
			<polyline style="fill:none;stroke:#DF3536;stroke-width:3;stroke-miterlimit:10;" points="232.936,78.014 232.936,101.195 
				239.494,92.799 244.532,95.678 244.532,72.217 			"/>
			<path style="fill:none;stroke:#2A2766;stroke-width:3;stroke-miterlimit:10;" d="M205.008,91.979"/>
			<polyline style="fill:none;stroke:#2A2766;stroke-width:3;stroke-miterlimit:10;" points="255.366,128.777 255.366,66.8 
				205.008,91.979 			"/>
			
				<line style="fill:none;stroke:#2A2766;stroke-width:3;stroke-miterlimit:10;" x1="205.008" y1="91.979" x2="193.199" y2="86.074"/>
			<polyline style="fill:none;stroke:#2A2766;stroke-width:3;stroke-miterlimit:10;" points="191.006,47.054 203.965,40.315 
				243.212,59.213 			"/>
			<g>
				<polygon style="fill:none;stroke:#DF3536;stroke-width:3;stroke-miterlimit:10;" points="124.82,53.037 124.82,53.141 
					124.82,94.288 124.82,94.418 124.95,94.418 182.896,94.418 183.229,94.418 183.36,94.418 183.36,94.288 183.36,53.141 
					183.36,53.037 				"/>
				
					<line style="fill:none;stroke:#DF3536;stroke-width:3;stroke-miterlimit:10;" x1="167.599" y1="82.096" x2="178.313" y2="82.096"/>
				
					<line style="fill:none;stroke:#DF3536;stroke-width:3;stroke-miterlimit:10;" x1="167.599" y1="76.738" x2="178.313" y2="76.738"/>
				
					<line style="fill:none;stroke:#DF3536;stroke-width:3;stroke-miterlimit:10;" x1="160.905" y1="87.452" x2="178.313" y2="87.452"/>
				
					<rect x="126.838" y="46.121" style="fill:none;stroke:#DF3536;stroke-width:3;stroke-miterlimit:10;" width="54.503" height="6.916"/>
				
					<rect x="128.857" y="40.164" style="fill:none;stroke:#DF3536;stroke-width:3;stroke-miterlimit:10;" width="50.466" height="5.957"/>
				<polyline style="fill:none;stroke:#DF3536;stroke-width:3;stroke-miterlimit:10;" points="183.36,52.787 173.764,64.302 
					134.415,64.302 124.82,52.787 				"/>
				<polyline style="fill:none;stroke:#DF3536;stroke-width:3;stroke-miterlimit:10;" points="174.952,34.707 168.113,26.5 
					140.067,26.5 133.228,34.707 				"/>
			</g>
			<polyline style="fill:none;stroke:#2A2766;stroke-width:3;stroke-miterlimit:10;" points="243.242,134.84 205.008,153.958 
				154.65,128.777 154.65,103.381 			"/>
			
				<line style="fill:none;stroke:#2A2766;stroke-width:3;stroke-miterlimit:10;" x1="205.008" y1="91.979" x2="205.008" y2="135.98"/>
			<g>
				
					<line style="fill:none;stroke:#DF3536;stroke-width:3;stroke-miterlimit:10;" x1="139.739" y1="130.584" x2="113" y2="130.584"/>
				
					<line style="fill:none;stroke:#DF3536;stroke-width:3;stroke-miterlimit:10;" x1="142.012" y1="120.122" x2="122.268" y2="120.122"/>
				
					<line style="fill:none;stroke:#DF3536;stroke-width:3;stroke-miterlimit:10;" x1="142.012" y1="144.77" x2="129.221" y2="144.77"/>
				
					<line style="fill:none;stroke:#DF3536;stroke-width:3;stroke-miterlimit:10;" x1="168.513" y1="153.958" x2="139.876" y2="153.958"/>
			</g>
		</g>
	</g>
</g>
<g id="Warstwa_1">
</g>
</svg>
