<!--?xml version="1.0" encoding="utf-8"?-->
<!-- Generator: Adobe Illustrator 15.1.0, SVG Export Plug-In . SVG Version: 6.00 Build 0)  -->

<svg version="1.1" id="Layer_1" xmlns="http://www.w3.org/2000/svg" xmlns:xlink="http://www.w3.org/1999/xlink" x="0px" y="0px" width="1133.859px" height="1133.858px" viewBox="0 0 1133.859 1133.858" enable-background="new 0 0 1133.859 1133.858" xml:space="preserve">
<g>
	<path fill="none" stroke="#DCDCDC" stroke-width="3" stroke-linecap="square" stroke-miterlimit="10" d="M1122.585,566.929
		c0,306.876-248.807,555.632-555.66,555.632c-306.853,0-555.652-248.756-555.652-555.632c0-306.868,248.8-555.633,555.652-555.633
		C873.779,11.296,1122.585,260.061,1122.585,566.929z" class="kqXtfXZt_0"></path>
	<path fill="none" stroke="#DCDCDC" stroke-width="3" stroke-linecap="square" stroke-miterlimit="10" d="M1122.585,566.929
		c0,306.89-248.807,555.656-555.66,555.656c-306.853,0-555.652-248.766-555.652-555.656c0-306.881,248.8-555.656,555.652-555.656
		C873.779,11.273,1122.585,260.048,1122.585,566.929z" class="kqXtfXZt_1"></path>
	<path fill="none" stroke="#DCDCDC" stroke-width="3" stroke-linecap="square" stroke-miterlimit="10" d="M955.888,566.929
		c0,214.814-174.164,388.941-388.962,388.941c-214.796,0-388.955-174.127-388.955-388.941
		c0-214.808,174.159-388.942,388.955-388.942C781.724,177.987,955.888,352.122,955.888,566.929z" class="kqXtfXZt_2"></path>
	<path fill="none" stroke="#DCDCDC" stroke-width="3" stroke-linecap="square" stroke-miterlimit="10" d="M955.888,566.929
		c0,214.824-174.164,388.958-388.962,388.958c-214.796,0-388.955-174.135-388.955-388.958c0-214.817,174.159-388.96,388.955-388.96
		C781.724,177.969,955.888,352.112,955.888,566.929z" class="kqXtfXZt_3"></path>
	<path fill="none" stroke="#DCDCDC" stroke-width="3" stroke-linecap="square" stroke-miterlimit="10" d="M789.191,566.929
		c0,122.75-99.521,222.253-222.263,222.253c-122.74,0-222.261-99.504-222.261-222.253c0-122.748,99.521-222.253,222.261-222.253
		C689.669,344.676,789.191,444.181,789.191,566.929z" class="kqXtfXZt_4"></path>
	<path fill="none" stroke="#DCDCDC" stroke-width="3" stroke-linecap="square" stroke-miterlimit="10" d="M789.191,566.929
		c0,122.755-99.521,222.261-222.263,222.261c-122.74,0-222.261-99.506-222.261-222.261c0-122.753,99.521-222.263,222.261-222.263
		C689.669,344.667,789.191,444.176,789.191,566.929z" class="kqXtfXZt_5"></path>
	
		<path fill="none" stroke="#DCDCDC" stroke-width="3" stroke-linecap="square" stroke-miterlimit="10" d="M566.929,11.296L566.929,566.929" class="kqXtfXZt_6"></path>
	
		<path fill="none" stroke="#DCDCDC" stroke-width="3" stroke-linecap="square" stroke-miterlimit="10" d="M11.87,566.929L566.739,566.929" class="kqXtfXZt_7"></path>
	<g>
		<path fill="#281D67" d="M522.872,112.616h-6.948l-6.84-23.76h6.659l3.925,18.899l4.283-18.899h5.616l4.356,18.863l3.924-18.863
			h6.408l-6.876,23.76h-6.732l-2.808-11.52l-1.08-5.797h-0.072l-1.044,5.797L522.872,112.616z" class="kqXtfXZt_8"></path>
		<path fill="#281D67" d="M563.108,95.912c1.128,1.104,1.692,2.677,1.692,4.716v11.988h-6.12V102.32c0-2.28-0.853-3.42-2.557-3.42
			c-0.96,0-1.74,0.348-2.34,1.044s-0.899,1.764-0.899,3.204v9.468h-6.12V86.984h6.12v10.908c0.527-1.2,1.277-2.106,2.25-2.719
			c0.972-0.611,2.117-0.918,3.438-0.918C560.468,94.255,561.98,94.808,563.108,95.912z" class="kqXtfXZt_9"></path>
		<path fill="#281D67" d="M587.484,108.98l-0.468,3.42c-0.697,0.384-1.513,0.576-2.448,0.576c-2.592,0-4.141-0.924-4.645-2.772
			c-1.08,1.849-3.216,2.772-6.407,2.772c-1.801,0-3.181-0.384-4.141-1.152c-0.96-0.768-1.439-1.884-1.439-3.348
			c0-1.536,0.545-2.778,1.638-3.727c1.092-0.947,2.886-1.674,5.382-2.178l4.068-0.792v-0.648c0-0.815-0.229-1.463-0.685-1.943
			s-1.08-0.721-1.872-0.721c-0.912,0-1.655,0.217-2.231,0.648s-0.948,1.141-1.116,2.124l-4.968-1.44
			c0.312-1.751,1.176-3.113,2.592-4.086c1.416-0.972,3.324-1.458,5.724-1.458c2.809,0,4.944,0.576,6.408,1.729
			c1.464,1.151,2.196,2.88,2.196,5.184v6.552c0,0.937,0.432,1.404,1.296,1.404C586.824,109.124,587.196,109.076,587.484,108.98z
			 M578.017,108.314c0.671-0.468,1.008-1.086,1.008-1.854v-1.548l-2.916,0.685c-0.769,0.192-1.314,0.426-1.639,0.701
			c-0.323,0.276-0.485,0.666-0.485,1.17c0,0.505,0.155,0.889,0.468,1.152c0.312,0.265,0.744,0.396,1.296,0.396
			C576.588,109.016,577.344,108.782,578.017,108.314z" class="kqXtfXZt_10"></path>
		<path fill="#281D67" d="M602.503,111.608c-0.6,0.408-1.362,0.738-2.286,0.99s-1.854,0.378-2.789,0.378
			c-2.137,0-3.769-0.456-4.896-1.368s-1.704-2.376-1.728-4.393v-8.243h-3.097v-4.356h3.097v-4.032l6.119-1.691v5.724h5.4v4.356h-5.4
			v7.235c0,1.608,0.792,2.412,2.376,2.412c0.984,0,1.849-0.264,2.593-0.792L602.503,111.608z" class="kqXtfXZt_11"></path>
		<path fill="#281D67" d="M621.122,90.116c1.668,1.08,2.502,2.712,2.502,4.896c0,4.031-2.28,6.3-6.84,6.804l-0.36,3.096h-5.256
			l-0.324-5.472c2.208-0.168,3.792-0.546,4.752-1.134s1.44-1.374,1.44-2.358c0-0.792-0.258-1.404-0.774-1.836
			c-0.516-0.432-1.29-0.648-2.321-0.648c-1.057,0-1.896,0.307-2.521,0.918c-0.624,0.612-0.984,1.519-1.08,2.719l-5.903-2.269
			c0.288-1.92,1.241-3.456,2.861-4.607c1.62-1.152,3.979-1.729,7.074-1.729C617.204,88.496,619.454,89.036,621.122,90.116z
			 M616.37,107.612c0.612,0.528,0.918,1.272,0.918,2.231c0,0.961-0.306,1.711-0.918,2.25c-0.612,0.54-1.458,0.811-2.538,0.811
			c-1.104,0-1.962-0.271-2.574-0.811c-0.611-0.539-0.918-1.289-0.918-2.25c0-0.959,0.307-1.703,0.918-2.231
			c0.612-0.527,1.47-0.792,2.574-0.792C614.912,106.82,615.758,107.084,616.37,107.612z" class="kqXtfXZt_12"></path>
	</g>
	<g>
		<path fill="#74275C" d="M539.754,256.642v23.76h-6.192v-9.576h-9.071v9.576h-6.192v-23.76h6.192v9.396h9.071v-9.396H539.754z" class="kqXtfXZt_13"></path>
		<path fill="#74275C" d="M560.039,264.508c1.668,1.644,2.502,3.941,2.502,6.894s-0.834,5.25-2.502,6.894
			c-1.668,1.645-4.002,2.467-7.002,2.467s-5.334-0.822-7.002-2.467c-1.668-1.644-2.502-3.941-2.502-6.894s0.834-5.25,2.502-6.894
			c1.668-1.645,4.002-2.467,7.002-2.467S558.371,262.864,560.039,264.508z M550.481,267.585c-0.553,0.792-0.828,2.064-0.828,3.816
			s0.275,3.024,0.828,3.816c0.552,0.792,1.403,1.188,2.556,1.188s2.004-0.396,2.556-1.188s0.828-2.064,0.828-3.816
			s-0.276-3.024-0.828-3.816s-1.403-1.188-2.556-1.188S551.033,266.793,550.481,267.585z" class="kqXtfXZt_14"></path>
		<path fill="#74275C" d="M595.481,262.402l-5.437,18h-7.344l-3.24-11.556l-3.204,11.556h-7.308l-5.472-18h6.443l3.024,13.572
			l3.528-13.572h6.048l3.492,13.572l3.06-13.572H595.481z" class="kqXtfXZt_15"></path>
		<path fill="#74275C" d="M614.176,257.902c1.668,1.08,2.502,2.712,2.502,4.896c0,4.031-2.28,6.3-6.84,6.804l-0.36,3.096h-5.256
			l-0.324-5.472c2.208-0.168,3.792-0.546,4.752-1.134s1.44-1.374,1.44-2.358c0-0.792-0.258-1.404-0.774-1.836
			c-0.516-0.432-1.29-0.648-2.321-0.648c-1.057,0-1.896,0.307-2.521,0.918c-0.624,0.612-0.984,1.519-1.08,2.719l-5.903-2.269
			c0.288-1.92,1.241-3.456,2.861-4.607c1.62-1.152,3.979-1.729,7.074-1.729C610.258,256.282,612.508,256.822,614.176,257.902z
			 M609.424,275.398c0.612,0.528,0.918,1.272,0.918,2.231c0,0.961-0.306,1.711-0.918,2.25c-0.612,0.54-1.458,0.811-2.538,0.811
			c-1.104,0-1.962-0.271-2.574-0.811c-0.611-0.539-0.918-1.289-0.918-2.25c0-0.959,0.307-1.703,0.918-2.231
			c0.612-0.527,1.47-0.792,2.574-0.792C607.966,274.606,608.812,274.871,609.424,275.398z" class="kqXtfXZt_16"></path>
	</g>
	<g>
		<path fill="#DE3236" d="M530.884,448.188h-6.948l-6.84-23.76h6.659l3.925,18.899l4.283-18.899h5.616l4.356,18.863l3.924-18.863
			h6.408l-6.876,23.76h-6.732l-2.808-11.52l-1.08-5.797h-0.072l-1.044,5.797L530.884,448.188z" class="kqXtfXZt_17"></path>
		<path fill="#DE3236" d="M571.12,431.484c1.128,1.104,1.692,2.677,1.692,4.716v11.988h-6.12v-10.296c0-2.28-0.853-3.42-2.557-3.42
			c-0.96,0-1.74,0.348-2.34,1.044s-0.899,1.764-0.899,3.204v9.468h-6.12v-25.632h6.12v10.908c0.527-1.2,1.277-2.106,2.25-2.719
			c0.972-0.611,2.117-0.918,3.438-0.918C568.479,429.828,569.992,430.38,571.12,431.484z" class="kqXtfXZt_18"></path>
		<path fill="#DE3236" d="M588,448.188c-0.672,1.92-1.403,3.443-2.195,4.572c-0.792,1.128-1.729,1.938-2.809,2.43
			c-1.08,0.491-2.388,0.738-3.924,0.738c-2.04,0-3.672-0.444-4.896-1.332l1.296-4.104c0.384,0.36,0.81,0.606,1.277,0.738
			c0.469,0.132,1.074,0.198,1.818,0.198c0.743,0,1.332-0.126,1.764-0.378c0.433-0.252,0.78-0.702,1.044-1.351l0.433-1.115
			l-2.088-4.896l-5.364-13.5h6.731l2.772,10.26l0.864,3.816l0.972-3.96l2.772-10.116h6.119L588,448.188z" class="kqXtfXZt_19"></path>
		<path fill="#DE3236" d="M613.11,425.688c1.668,1.08,2.502,2.712,2.502,4.896c0,4.031-2.28,6.3-6.84,6.804l-0.36,3.096h-5.256
			l-0.324-5.472c2.208-0.168,3.792-0.546,4.752-1.134s1.44-1.374,1.44-2.358c0-0.792-0.258-1.404-0.774-1.836
			c-0.516-0.432-1.29-0.648-2.321-0.648c-1.057,0-1.896,0.307-2.521,0.918c-0.624,0.612-0.984,1.519-1.08,2.719l-5.903-2.269
			c0.288-1.92,1.241-3.456,2.861-4.607c1.62-1.152,3.979-1.729,7.074-1.729C609.192,424.068,611.442,424.608,613.11,425.688z
			 M608.358,443.184c0.612,0.528,0.918,1.272,0.918,2.231c0,0.961-0.306,1.711-0.918,2.25c-0.612,0.54-1.458,0.811-2.538,0.811
			c-1.104,0-1.962-0.271-2.574-0.811c-0.611-0.539-0.918-1.289-0.918-2.25c0-0.959,0.307-1.703,0.918-2.231
			c0.612-0.527,1.47-0.792,2.574-0.792C606.9,442.392,607.746,442.657,608.358,443.184z" class="kqXtfXZt_20"></path>
	</g>
	<g>
		<g>
			<path fill="#542462" d="M174.894,553.019L133.172,553.019L127.607,558.582L169.332,558.582Z" class="kqXtfXZt_21"></path>
			<path fill="#542462" d="M133.171,575.274L133.171,569.706L133.172,569.708L149.861,569.708L155.424,564.145L
				127.608,564.145L127.607,564.145L127.607,575.272L127.62,575.274L127.607,575.274L133.172,580.836L174.894,580.836L
				169.332,575.274Z" class="kqXtfXZt_22"></path>
		</g>
		<g>
			<path fill="#74275C" d="M220.79,580.836L226.354,575.274L226.354,558.584L220.79,564.145Z" class="kqXtfXZt_23"></path>
			<path fill="#74275C" d="M205.49,553.019L199.93,558.582L241.653,558.582L247.216,553.019Z" class="kqXtfXZt_24"></path>
		</g>
		<g>
			<path fill="#982B53" d="M276.421,575.274L281.982,580.836L281.982,569.708L281.982,569.709L298.672,569.709L
				304.237,564.145L276.421,564.145Z" class="kqXtfXZt_25"></path>
			<path fill="#982B53" d="M281.982,553.019L276.421,558.582L318.143,558.582L323.707,553.019Z" class="kqXtfXZt_26"></path>
		</g>
		<g>
			<path fill="#281D67" d="M46.939,580.836L52.502,575.274L52.502,561.693L46.939,567.256Z" class="kqXtfXZt_27"></path>
			<path fill="#281D67" d="M88.664,558.584L88.664,572.163L46.939,553.019L46.939,559.139L94.226,580.836L94.226,553.019Z" class="kqXtfXZt_28"></path>
		</g>
		<g>
			<path fill="#B83048" d="M372.38,551.629c-13.057,0-23.64,6.849-23.64,15.298c0,8.452,10.583,15.3,23.64,15.3
				c13.059,0,23.644-6.848,23.644-15.3C396.023,558.478,385.438,551.629,372.38,551.629z M372.38,576.664
				c-9.982,0-16.687-4.358-16.687-9.735s6.704-9.735,16.687-9.735c9.985,0,16.689,4.358,16.689,9.735
				S382.365,576.664,372.38,576.664z" class="kqXtfXZt_29"></path>
		</g>
		<g>
			<path fill="#DE3236" d="M425.229,580.836L434.626,580.836L448.875,570.376L439.479,570.376Z" class="kqXtfXZt_30"></path>
			<path fill="#DE3236" d="M472.523,553.019L463.12,553.019L453.576,560.028L453.576,566.927Z" class="kqXtfXZt_31"></path>
			<path fill="#DE3236" d="M434.632,553.019L425.229,553.019L463.125,580.836L472.523,580.836Z" class="kqXtfXZt_32"></path>
		</g>
	</g>
	<g>
		<path fill="none" stroke="#DCDCDC" stroke-width="3" stroke-miterlimit="10" d="M566.929,11.273L552.755,25.446" class="kqXtfXZt_33"></path>
		<path fill="none" stroke="#DCDCDC" stroke-width="3" stroke-miterlimit="10" d="M566.929,11.273L581.103,25.446" class="kqXtfXZt_34"></path>
	</g>
	<g>
		<path fill="none" stroke="#DCDCDC" stroke-width="3" stroke-miterlimit="10" d="M11.273,567.202L25.446,581.376" class="kqXtfXZt_35"></path>
		<path fill="none" stroke="#DCDCDC" stroke-width="3" stroke-miterlimit="10" d="M11.273,567.202L25.446,553.027" class="kqXtfXZt_36"></path>
	</g>
</g>
<style>.kqXtfXZt_0{stroke-dasharray:3492 3494;stroke-dashoffset:3493;animation:kqXtfXZt_draw_0 7500ms ease-out 0ms infinite,kqXtfXZt_fade 7500ms linear 0ms infinite;}.kqXtfXZt_1{stroke-dasharray:3492 3494;stroke-dashoffset:3493;animation:kqXtfXZt_draw_1 7500ms ease-out 0ms infinite,kqXtfXZt_fade 7500ms linear 0ms infinite;}.kqXtfXZt_2{stroke-dasharray:2445 2447;stroke-dashoffset:2446;animation:kqXtfXZt_draw_2 7500ms ease-out 0ms infinite,kqXtfXZt_fade 7500ms linear 0ms infinite;}.kqXtfXZt_3{stroke-dasharray:2445 2447;stroke-dashoffset:2446;animation:kqXtfXZt_draw_3 7500ms ease-out 0ms infinite,kqXtfXZt_fade 7500ms linear 0ms infinite;}.kqXtfXZt_4{stroke-dasharray:1397 1399;stroke-dashoffset:1398;animation:kqXtfXZt_draw_4 7500ms ease-out 0ms infinite,kqXtfXZt_fade 7500ms linear 0ms infinite;}.kqXtfXZt_5{stroke-dasharray:1397 1399;stroke-dashoffset:1398;animation:kqXtfXZt_draw_5 7500ms ease-out 0ms infinite,kqXtfXZt_fade 7500ms linear 0ms infinite;}.kqXtfXZt_6{stroke-dasharray:556 558;stroke-dashoffset:557;animation:kqXtfXZt_draw_6 7500ms ease-out 0ms infinite,kqXtfXZt_fade 7500ms linear 0ms infinite;}.kqXtfXZt_7{stroke-dasharray:555 557;stroke-dashoffset:556;animation:kqXtfXZt_draw_7 7500ms ease-out 0ms infinite,kqXtfXZt_fade 7500ms linear 0ms infinite;}.kqXtfXZt_8{stroke-dasharray:195 197;stroke-dashoffset:196;animation:kqXtfXZt_draw_8 7500ms ease-out 0ms infinite,kqXtfXZt_fade 7500ms linear 0ms infinite;}.kqXtfXZt_9{stroke-dasharray:115 117;stroke-dashoffset:116;animation:kqXtfXZt_draw_9 7500ms ease-out 0ms infinite,kqXtfXZt_fade 7500ms linear 0ms infinite;}.kqXtfXZt_10{stroke-dasharray:105 107;stroke-dashoffset:106;animation:kqXtfXZt_draw_10 7500ms ease-out 0ms infinite,kqXtfXZt_fade 7500ms linear 0ms infinite;}.kqXtfXZt_11{stroke-dasharray:84 86;stroke-dashoffset:85;animation:kqXtfXZt_draw_11 7500ms ease-out 0ms infinite,kqXtfXZt_fade 7500ms linear 0ms infinite;}.kqXtfXZt_12{stroke-dasharray:96 98;stroke-dashoffset:97;animation:kqXtfXZt_draw_12 7500ms ease-out 0ms infinite,kqXtfXZt_fade 7500ms linear 0ms infinite;}.kqXtfXZt_13{stroke-dasharray:129 131;stroke-dashoffset:130;animation:kqXtfXZt_draw_13 7500ms ease-out 0ms infinite,kqXtfXZt_fade 7500ms linear 0ms infinite;}.kqXtfXZt_14{stroke-dasharray:89 91;stroke-dashoffset:90;animation:kqXtfXZt_draw_14 7500ms ease-out 0ms infinite,kqXtfXZt_fade 7500ms linear 0ms infinite;}.kqXtfXZt_15{stroke-dasharray:152 154;stroke-dashoffset:153;animation:kqXtfXZt_draw_15 7500ms ease-out 0ms infinite,kqXtfXZt_fade 7500ms linear 0ms infinite;}.kqXtfXZt_16{stroke-dasharray:96 98;stroke-dashoffset:97;animation:kqXtfXZt_draw_16 7500ms ease-out 0ms infinite,kqXtfXZt_fade 7500ms linear 0ms infinite;}.kqXtfXZt_17{stroke-dasharray:195 197;stroke-dashoffset:196;animation:kqXtfXZt_draw_17 7500ms ease-out 0ms infinite,kqXtfXZt_fade 7500ms linear 0ms infinite;}.kqXtfXZt_18{stroke-dasharray:115 117;stroke-dashoffset:116;animation:kqXtfXZt_draw_18 7500ms ease-out 0ms infinite,kqXtfXZt_fade 7500ms linear 0ms infinite;}.kqXtfXZt_19{stroke-dasharray:112 114;stroke-dashoffset:113;animation:kqXtfXZt_draw_19 7500ms ease-out 0ms infinite,kqXtfXZt_fade 7500ms linear 0ms infinite;}.kqXtfXZt_20{stroke-dasharray:96 98;stroke-dashoffset:97;animation:kqXtfXZt_draw_20 7500ms ease-out 0ms infinite,kqXtfXZt_fade 7500ms linear 0ms infinite;}.kqXtfXZt_21{stroke-dasharray:100 102;stroke-dashoffset:101;animation:kqXtfXZt_draw_21 7500ms ease-out 0ms infinite,kqXtfXZt_fade 7500ms linear 0ms infinite;}.kqXtfXZt_22{stroke-dasharray:163 165;stroke-dashoffset:164;animation:kqXtfXZt_draw_22 7500ms ease-out 0ms infinite,kqXtfXZt_fade 7500ms linear 0ms infinite;}.kqXtfXZt_23{stroke-dasharray:50 52;stroke-dashoffset:51;animation:kqXtfXZt_draw_23 7500ms ease-out 0ms infinite,kqXtfXZt_fade 7500ms linear 0ms infinite;}.kqXtfXZt_24{stroke-dasharray:100 102;stroke-dashoffset:101;animation:kqXtfXZt_draw_24 7500ms ease-out 0ms infinite,kqXtfXZt_fade 7500ms linear 0ms infinite;}.kqXtfXZt_25{stroke-dasharray:83 85;stroke-dashoffset:84;animation:kqXtfXZt_draw_25 7500ms ease-out 0ms infinite,kqXtfXZt_fade 7500ms linear 0ms infinite;}.kqXtfXZt_26{stroke-dasharray:100 102;stroke-dashoffset:101;animation:kqXtfXZt_draw_26 7500ms ease-out 0ms infinite,kqXtfXZt_fade 7500ms linear 0ms infinite;}.kqXtfXZt_27{stroke-dasharray:43 45;stroke-dashoffset:44;animation:kqXtfXZt_draw_27 7500ms ease-out 0ms infinite,kqXtfXZt_fade 7500ms linear 0ms infinite;}.kqXtfXZt_28{stroke-dasharray:154 156;stroke-dashoffset:155;animation:kqXtfXZt_draw_28 7500ms ease-out 0ms infinite,kqXtfXZt_fade 7500ms linear 0ms infinite;}.kqXtfXZt_29{stroke-dasharray:209 211;stroke-dashoffset:210;animation:kqXtfXZt_draw_29 7500ms ease-out 0ms infinite,kqXtfXZt_fade 7500ms linear 0ms infinite;}.kqXtfXZt_30{stroke-dasharray:55 57;stroke-dashoffset:56;animation:kqXtfXZt_draw_30 7500ms ease-out 0ms infinite,kqXtfXZt_fade 7500ms linear 0ms infinite;}.kqXtfXZt_31{stroke-dasharray:52 54;stroke-dashoffset:53;animation:kqXtfXZt_draw_31 7500ms ease-out 0ms infinite,kqXtfXZt_fade 7500ms linear 0ms infinite;}.kqXtfXZt_32{stroke-dasharray:113 115;stroke-dashoffset:114;animation:kqXtfXZt_draw_32 7500ms ease-out 0ms infinite,kqXtfXZt_fade 7500ms linear 0ms infinite;}.kqXtfXZt_33{stroke-dasharray:21 23;stroke-dashoffset:22;animation:kqXtfXZt_draw_33 7500ms ease-out 0ms infinite,kqXtfXZt_fade 7500ms linear 0ms infinite;}.kqXtfXZt_34{stroke-dasharray:21 23;stroke-dashoffset:22;animation:kqXtfXZt_draw_34 7500ms ease-out 0ms infinite,kqXtfXZt_fade 7500ms linear 0ms infinite;}.kqXtfXZt_35{stroke-dasharray:21 23;stroke-dashoffset:22;animation:kqXtfXZt_draw_35 7500ms ease-out 0ms infinite,kqXtfXZt_fade 7500ms linear 0ms infinite;}.kqXtfXZt_36{stroke-dasharray:21 23;stroke-dashoffset:22;animation:kqXtfXZt_draw_36 7500ms ease-out 0ms infinite,kqXtfXZt_fade 7500ms linear 0ms infinite;}@keyframes kqXtfXZt_draw{100%{stroke-dashoffset:0;}}@keyframes kqXtfXZt_fade{0%{stroke-opacity:1;}86.66666666666667%{stroke-opacity:1;}100%{stroke-opacity:0;}}@keyframes kqXtfXZt_draw_0{20%{stroke-dashoffset: 3493}29.96167762864731%{ stroke-dashoffset: 0;}100%{ stroke-dashoffset: 0;}}@keyframes kqXtfXZt_draw_1{29.96167762864731%{stroke-dashoffset: 3493}39.92335525729462%{ stroke-dashoffset: 0;}100%{ stroke-dashoffset: 0;}}@keyframes kqXtfXZt_draw_2{39.92335525729462%{stroke-dashoffset: 2446}46.899096305010424%{ stroke-dashoffset: 0;}100%{ stroke-dashoffset: 0;}}@keyframes kqXtfXZt_draw_3{46.899096305010424%{stroke-dashoffset: 2446}53.87483735272623%{ stroke-dashoffset: 0;}100%{ stroke-dashoffset: 0;}}@keyframes kqXtfXZt_draw_4{53.87483735272623%{stroke-dashoffset: 1398}57.861789922107555%{ stroke-dashoffset: 0;}100%{ stroke-dashoffset: 0;}}@keyframes kqXtfXZt_draw_5{57.861789922107555%{stroke-dashoffset: 1398}61.84874249148887%{ stroke-dashoffset: 0;}100%{ stroke-dashoffset: 0;}}@keyframes kqXtfXZt_draw_6{61.84874249148887%{stroke-dashoffset: 557}63.43724934495483%{ stroke-dashoffset: 0;}100%{ stroke-dashoffset: 0;}}@keyframes kqXtfXZt_draw_7{63.437249344954814%{stroke-dashoffset: 556}65.02290430101777%{ stroke-dashoffset: 0;}100%{ stroke-dashoffset: 0;}}@keyframes kqXtfXZt_draw_8{65.02290430101777%{stroke-dashoffset: 196}65.58187619200399%{ stroke-dashoffset: 0;}100%{ stroke-dashoffset: 0;}}@keyframes kqXtfXZt_draw_9{65.58187619200399%{stroke-dashoffset: 116}65.91269629075094%{ stroke-dashoffset: 0;}100%{ stroke-dashoffset: 0;}}@keyframes kqXtfXZt_draw_10{65.91269629075094%{stroke-dashoffset: 106}66.21499741546799%{ stroke-dashoffset: 0;}100%{ stroke-dashoffset: 0;}}@keyframes kqXtfXZt_draw_11{66.21499741546798%{stroke-dashoffset: 85}66.4574086947222%{ stroke-dashoffset: 0;}100%{ stroke-dashoffset: 0;}}@keyframes kqXtfXZt_draw_12{66.4574086947222%{stroke-dashoffset: 97}66.73404274281232%{ stroke-dashoffset: 0;}100%{ stroke-dashoffset: 0;}}@keyframes kqXtfXZt_draw_13{66.73404274281232%{stroke-dashoffset: 130}67.10478940520116%{ stroke-dashoffset: 0;}100%{ stroke-dashoffset: 0;}}@keyframes kqXtfXZt_draw_14{67.10478940520116%{stroke-dashoffset: 90}67.36146017147034%{ stroke-dashoffset: 0;}100%{ stroke-dashoffset: 0;}}@keyframes kqXtfXZt_draw_15{67.36146017147033%{stroke-dashoffset: 153}67.79780047412794%{ stroke-dashoffset: 0;}100%{ stroke-dashoffset: 0;}}@keyframes kqXtfXZt_draw_16{67.79780047412794%{stroke-dashoffset: 97}68.07443452221807%{ stroke-dashoffset: 0;}100%{ stroke-dashoffset: 0;}}@keyframes kqXtfXZt_draw_17{68.07443452221807%{stroke-dashoffset: 196}68.6334064132043%{ stroke-dashoffset: 0;}100%{ stroke-dashoffset: 0;}}@keyframes kqXtfXZt_draw_18{68.63340641320428%{stroke-dashoffset: 116}68.96422651195124%{ stroke-dashoffset: 0;}100%{ stroke-dashoffset: 0;}}@keyframes kqXtfXZt_draw_19{68.96422651195122%{stroke-dashoffset: 113}69.2864909184892%{ stroke-dashoffset: 0;}100%{ stroke-dashoffset: 0;}}@keyframes kqXtfXZt_draw_20{69.28649091848922%{stroke-dashoffset: 97}69.56312496657934%{ stroke-dashoffset: 0;}100%{ stroke-dashoffset: 0;}}@keyframes kqXtfXZt_draw_21{69.56312496657931%{stroke-dashoffset: 101}69.8511666042814%{ stroke-dashoffset: 0;}100%{ stroke-dashoffset: 0;}}@keyframes kqXtfXZt_draw_22{69.85116660428142%{stroke-dashoffset: 164}70.31887777837193%{ stroke-dashoffset: 0;}100%{ stroke-dashoffset: 0;}}@keyframes kqXtfXZt_draw_23{70.31887777837193%{stroke-dashoffset: 51}70.46432454592446%{ stroke-dashoffset: 0;}100%{ stroke-dashoffset: 0;}}@keyframes kqXtfXZt_draw_24{70.46432454592446%{stroke-dashoffset: 101}70.75236618362655%{ stroke-dashoffset: 0;}100%{ stroke-dashoffset: 0;}}@keyframes kqXtfXZt_draw_25{70.75236618362655%{stroke-dashoffset: 84}70.99192556547779%{ stroke-dashoffset: 0;}100%{ stroke-dashoffset: 0;}}@keyframes kqXtfXZt_draw_26{70.99192556547779%{stroke-dashoffset: 101}71.27996720317987%{ stroke-dashoffset: 0;}100%{ stroke-dashoffset: 0;}}@keyframes kqXtfXZt_draw_27{71.27996720317987%{stroke-dashoffset: 44}71.40545068891146%{ stroke-dashoffset: 0;}100%{ stroke-dashoffset: 0;}}@keyframes kqXtfXZt_draw_28{71.40545068891146%{stroke-dashoffset: 155}71.84749478637507%{ stroke-dashoffset: 0;}100%{ stroke-dashoffset: 0;}}@keyframes kqXtfXZt_draw_29{71.84749478637505%{stroke-dashoffset: 210}72.44639324100315%{ stroke-dashoffset: 0;}100%{ stroke-dashoffset: 0;}}@keyframes kqXtfXZt_draw_30{72.44639324100316%{stroke-dashoffset: 56}72.60609949557065%{ stroke-dashoffset: 0;}100%{ stroke-dashoffset: 0;}}@keyframes kqXtfXZt_draw_31{72.60609949557065%{stroke-dashoffset: 53}72.75725005792916%{ stroke-dashoffset: 0;}100%{ stroke-dashoffset: 0;}}@keyframes kqXtfXZt_draw_32{72.75725005792917%{stroke-dashoffset: 114}73.08236636187014%{ stroke-dashoffset: 0;}100%{ stroke-dashoffset: 0;}}@keyframes kqXtfXZt_draw_33{73.08236636187013%{stroke-dashoffset: 22}73.14510810473594%{ stroke-dashoffset: 0;}100%{ stroke-dashoffset: 0;}}@keyframes kqXtfXZt_draw_34{73.14510810473594%{stroke-dashoffset: 22}73.20784984760174%{ stroke-dashoffset: 0;}100%{ stroke-dashoffset: 0;}}@keyframes kqXtfXZt_draw_35{73.20784984760174%{stroke-dashoffset: 22}73.27059159046753%{ stroke-dashoffset: 0;}100%{ stroke-dashoffset: 0;}}@keyframes kqXtfXZt_draw_36{73.27059159046753%{stroke-dashoffset: 22}73.33333333333333%{ stroke-dashoffset: 0;}100%{ stroke-dashoffset: 0;}}</style></svg>
