<?xml version="1.0" standalone="no"?>
<!DOCTYPE svg PUBLIC "-//W3C//DTD SVG 20010904//EN"
 "http://www.w3.org/TR/2001/REC-SVG-20010904/DTD/svg10.dtd">
<svg version="1.0" xmlns="http://www.w3.org/2000/svg"
 width="6103.000000pt" height="1117.000000pt" viewBox="0 0 6103.000000 1117.000000"
 preserveAspectRatio="xMidYMid meet">
<metadata>
Created by potrace 1.14, written by Peter Selinger 2001-2017
</metadata>
<g transform="translate(0.000000,1117.000000) scale(0.100000,-0.100000)"
fill="#ffffff" stroke="none">
<path d="M750 5655 c0 -3043 3 -4575 10 -4575 6 0 10 4 10 9 0 4 55 40 123 79
67 38 529 304 1027 590 498 285 1040 597 1205 692 165 94 465 267 668 383 202
116 367 216 367 222 0 6 564 332 1253 725 688 393 1380 788 1537 878 157 90
407 234 555 319 240 139 1147 664 1152 667 2 2 -713 418 -1212 705 -167 97
-234 130 -245 124 -8 -5 -332 -193 -720 -417 -388 -224 -732 -425 -766 -446
-33 -21 -92 -54 -130 -75 -62 -33 -1358 -782 -1556 -899 -46 -27 -202 -117
-348 -201 -146 -84 -335 -193 -420 -242 -85 -49 -294 -169 -465 -267 -170 -99
-374 -217 -453 -262 -79 -46 -145 -84 -147 -84 -3 0 -5 1311 -5 2913 l0 2912
-714 413 c-393 226 -717 412 -720 412 -3 0 -6 -2059 -6 -4575z"/>
<path d="M9648 9791 l-718 -414 0 -2899 c0 -1594 -2 -2898 -5 -2898 -2 0 -68
38 -147 83 -79 46 -294 171 -478 277 -460 265 -634 365 -780 450 -236 137
-300 172 -309 168 -21 -7 -1430 -823 -1431 -828 0 -3 12 -12 28 -21 232 -135
610 -352 1612 -929 261 -150 563 -323 670 -385 395 -227 1614 -927 1925 -1105
176 -100 326 -190 332 -198 7 -9 15 -13 18 -10 3 2 4 2056 3 4564 l-3 4559
-717 -414z"/>
<path d="M12840 5675 l0 -4275 715 0 715 0 0 1780 0 1780 2150 0 2150 0 0
-1780 0 -1780 720 0 720 0 0 4275 0 4275 -720 0 -720 0 0 -1780 0 -1780 -2150
0 -2150 0 0 1780 0 1780 -715 0 -715 0 0 -4275z"/>
<path d="M22494 9943 c2 -5 812 -1032 1800 -2283 l1796 -2275 0 -1992 0 -1993
715 0 715 0 0 2034 0 2034 1738 2204 c956 1213 1751 2221 1766 2241 l28 37
-913 0 -914 -1 -1225 -1554 c-673 -855 -1227 -1555 -1230 -1555 -3 0 -554 700
-1224 1555 l-1220 1555 -918 0 c-506 0 -917 -3 -914 -7z"/>
<path d="M33530 5675 l0 -4275 715 0 715 0 0 1425 0 1425 1212 -2 1212 -3 66
-111 c37 -62 78 -131 92 -155 29 -51 23 -41 323 -554 125 -214 243 -416 262
-447 52 -90 84 -146 328 -563 125 -214 242 -415 260 -445 18 -30 50 -85 71
-122 21 -36 89 -152 149 -257 l110 -190 828 -1 829 0 -20 33 c-11 17 -37 64
-59 102 -22 39 -75 131 -118 205 -143 246 -187 323 -318 550 -72 124 -152 263
-180 310 -27 47 -100 173 -161 280 -132 227 -204 353 -282 488 -31 53 -89 153
-129 222 -65 113 -118 206 -283 490 -161 278 -222 383 -222 385 0 1 35 17 78
36 477 208 892 558 1201 1014 283 417 429 825 482 1340 11 111 8 487 -5 570
-3 17 -10 68 -16 115 -41 306 -163 660 -323 940 -304 532 -837 1014 -1377
1245 -196 84 -452 158 -655 189 -55 9 -118 19 -140 23 -22 4 -1076 8 -2342 10
l-2303 4 0 -4276z m4570 2821 c274 -55 502 -176 709 -372 227 -215 370 -469
426 -756 23 -114 27 -338 9 -468 -47 -343 -222 -655 -497 -886 -189 -159 -345
-240 -582 -302 l-100 -26 -1010 -4 c-555 -2 -1254 0 -1552 4 l-543 6 0 1414 0
1415 1528 -4 c1402 -3 1534 -5 1612 -21z"/>
<path d="M47111 9207 c-206 -408 -469 -931 -586 -1162 -117 -231 -410 -814
-653 -1295 -406 -808 -1025 -2037 -2221 -4412 l-472 -938 804 0 805 0 9 23 c7
21 304 605 428 842 29 55 106 205 171 332 l119 233 1976 0 1976 0 359 -715
359 -715 803 0 803 0 -309 613 c-170 336 -651 1289 -1067 2117 -417 828 -880
1748 -1030 2045 -150 297 -503 999 -786 1560 -282 561 -648 1289 -814 1617
l-301 597 -373 -742z m681 -3062 c104 -209 361 -718 569 -1131 208 -413 379
-756 379 -762 0 -9 -313 -12 -1255 -12 -836 0 -1255 3 -1255 10 0 12 103 218
752 1509 l501 993 59 -113 c33 -63 145 -285 250 -494z"/>
<path d="M54270 5675 l0 -4275 2865 0 2865 0 0 715 0 715 -2150 0 -2150 0 0
3560 0 3560 -715 0 -715 0 0 -4275z"/>
<path d="M4835 7019 c-390 -227 -944 -547 -1230 -712 -834 -481 -1144 -661
-1142 -663 1 -1 229 -133 507 -294 278 -161 595 -344 705 -408 109 -63 204
-115 210 -115 5 0 357 198 780 440 424 242 1124 642 1557 888 433 247 786 450
785 451 -25 19 -1440 824 -1449 824 -7 0 -332 -185 -723 -411z"/>
</g>
</svg>
