<?xml version="1.0" encoding="UTF-8" standalone="no"?>
<!-- Generator: Adobe Illustrator 16.0.0, SVG Export Plug-In . SVG Version: 6.00 Build 0)  -->

<svg
   xmlns:dc="http://purl.org/dc/elements/1.1/"
   xmlns:cc="http://creativecommons.org/ns#"
   xmlns:rdf="http://www.w3.org/1999/02/22-rdf-syntax-ns#"
   xmlns:svg="http://www.w3.org/2000/svg"
   xmlns="http://www.w3.org/2000/svg"
   xmlns:sodipodi="../../../../../../../../sodipodi.sourceforge.net/DTD/sodipodi-0.html"
   xmlns:inkscape="http://www.inkscape.org/namespaces/inkscape"
   version="1.1"
   x="0px"
   y="0px"
   width="150"
   height="54.999249"
   viewBox="0 0 150 54.999249"
   xml:space="preserve"
   id="svg2"
   inkscape:version="0.48.4 r9939"
   sodipodi:docname="ico_kontakt_mail.svg"><metadata
   id="metadata28"><rdf:RDF><cc:Work
       rdf:about=""><dc:format>image/svg+xml</dc:format><dc:type
         rdf:resource="http://purl.org/dc/dcmitype/StillImage" /></cc:Work></rdf:RDF></metadata><defs
   id="defs26" /><sodipodi:namedview
   pagecolor="#ffffff"
   bordercolor="#666666"
   borderopacity="1"
   objecttolerance="10"
   gridtolerance="10"
   guidetolerance="10"
   inkscape:pageopacity="0"
   inkscape:pageshadow="2"
   inkscape:window-width="769"
   inkscape:window-height="563"
   id="namedview24"
   showgrid="false"
   fit-margin-top="0"
   fit-margin-left="0"
   fit-margin-right="0"
   fit-margin-bottom="0"
   inkscape:zoom="1.1108108"
   inkscape:cx="-141.48297"
   inkscape:cy="-12.001375"
   inkscape:window-x="0"
   inkscape:window-y="0"
   inkscape:window-maximized="0"
   inkscape:current-layer="svg2" />
<g
   id="ico_x5F_kontakt_x5F_mail"
   transform="translate(-109.5,-62.999751)">
	<g
   id="g5">
		<g
   id="g7">
			<g
   id="g9">
				<path
   style="fill:#df3536;stroke:#df3536;stroke-miterlimit:10"
   d="m 191.434,80.372 c 1.725,0.993 3.002,2.333 3.836,4.019 0.834,1.686 1.25,3.597 1.25,5.732 0,1.518 -0.215,2.837 -0.646,3.962 -0.431,1.123 -1.035,1.983 -1.813,2.584 -0.777,0.601 -1.682,0.899 -2.711,0.899 -0.955,0 -1.695,-0.248 -2.22,-0.745 -0.524,-0.496 -0.871,-1.109 -1.04,-1.841 -0.506,0.769 -1.186,1.367 -2.037,1.8 -0.853,0.432 -1.831,0.646 -2.937,0.646 -0.881,0 -1.686,-0.229 -2.417,-0.688 -0.73,-0.46 -1.312,-1.119 -1.742,-1.979 -0.43,-0.861 -0.646,-1.873 -0.646,-3.035 0,-1.5 0.309,-2.806 0.927,-3.919 0.618,-1.114 1.424,-1.967 2.417,-2.557 0.992,-0.591 2.041,-0.886 3.146,-0.886 2.174,0 3.578,0.815 4.215,2.445 l 0.563,-2.276 h 1.461 l -1.097,8.738 c -0.019,0.149 -0.027,0.367 -0.027,0.646 0,1.388 0.59,2.08 1.771,2.08 1.012,0 1.778,-0.496 2.304,-1.488 0.524,-0.993 0.786,-2.454 0.786,-4.384 0,-1.892 -0.364,-3.555 -1.096,-4.988 -0.729,-1.433 -1.826,-2.557 -3.287,-3.371 -1.461,-0.815 -3.242,-1.223 -5.339,-1.223 -2.154,0 -4.022,0.436 -5.605,1.307 -1.583,0.871 -2.796,2.103 -3.639,3.695 -0.843,1.592 -1.265,3.466 -1.265,5.619 0,2.043 0.426,3.828 1.278,5.354 0.853,1.527 2.027,2.697 3.526,3.514 1.499,0.814 3.185,1.222 5.059,1.222 1.461,0 2.636,-0.157 3.526,-0.478 0.89,-0.317 1.736,-0.77 2.543,-1.35 l 0.982,1.293 c -1.012,0.711 -2.027,1.254 -3.049,1.629 -1.022,0.375 -2.355,0.563 -4.004,0.563 -2.343,0 -4.398,-0.486 -6.168,-1.461 -1.771,-0.976 -3.143,-2.353 -4.117,-4.132 -0.974,-1.778 -1.461,-3.83 -1.461,-6.153 0,-2.397 0.51,-4.528 1.531,-6.392 1.021,-1.863 2.468,-3.311 4.342,-4.341 1.873,-1.03 4.046,-1.546 6.519,-1.546 2.531,-0.004 4.657,0.493 6.381,1.486 z m -9.835,7.137 c -0.843,0.993 -1.265,2.36 -1.265,4.102 0,1.291 0.3,2.304 0.899,3.033 0.6,0.732 1.451,1.099 2.557,1.099 1.124,0 2.108,-0.356 2.951,-1.068 0.843,-0.713 1.349,-1.723 1.518,-3.034 l 0.168,-1.376 c 0.037,-0.375 0.058,-0.656 0.058,-0.844 0,-1.049 -0.277,-1.877 -0.83,-2.486 -0.553,-0.608 -1.428,-0.913 -2.626,-0.913 -1.445,-0.002 -2.588,0.494 -3.43,1.487 z"
   id="path11"
   inkscape:connector-curvature="0" />
			</g>
			<path
   style="fill:none;stroke:#2a2766;stroke-width:3;stroke-miterlimit:10"
   d="m 198.021,116.499 h 12.066 0.296 0.116 V 116.384 87.902 87.808 L 186.168,65.156 c -0.94,-0.875 -2.397,-0.875 -3.338,0 l -7.247,6.746"
   id="path13"
   inkscape:connector-curvature="0" />
			<polyline
   style="fill:none;stroke:#2a2766;stroke-width:3;stroke-miterlimit:10"
   points="167.925,79.034 158.5,87.808      158.5,87.902 158.5,116.384 158.5,116.499 158.615,116.499 188.161,116.499    "
   id="polyline15" />
			<path
   style="fill:none;stroke:#2a2766;stroke-width:3;stroke-miterlimit:10"
   d="M 158.5,115.341 V 88.966 c 0,-0.475 0.543,-0.744 0.921,-0.456 l 17.906,13.642 -17.906,13.646 c -0.378,0.287 -0.921,0.016 -0.921,-0.457 z"
   id="path17"
   inkscape:connector-curvature="0" />
			<path
   style="fill:none;stroke:#2a2766;stroke-width:3;stroke-miterlimit:10"
   d="M 210.5,115.341 V 88.966 c 0,-0.475 -0.543,-0.744 -0.921,-0.456 l -17.906,13.642 17.906,13.646 c 0.378,0.287 0.921,0.016 0.921,-0.457 z"
   id="path19"
   inkscape:connector-curvature="0" />
			
				<line
   style="fill:none;stroke:#2a2766;stroke-width:3;stroke-miterlimit:10"
   x1="176.431"
   y1="102.152"
   x2="191.673"
   y2="102.152"
   id="line21" />
		</g>
	</g>
</g>
<g
   id="Warstwa_1"
   transform="translate(-204.5,-22.999373)">
</g>
</svg>