<?xml version="1.0" encoding="UTF-8" standalone="no"?>
<!-- Generator: Adobe Illustrator 16.0.0, SVG Export Plug-In . SVG Version: 6.00 Build 0)  -->

<svg
   xmlns:dc="http://purl.org/dc/elements/1.1/"
   xmlns:cc="http://creativecommons.org/ns#"
   xmlns:rdf="http://www.w3.org/1999/02/22-rdf-syntax-ns#"
   xmlns:svg="http://www.w3.org/2000/svg"
   xmlns="http://www.w3.org/2000/svg"
   xmlns:sodipodi="../../../../../../../../sodipodi.sourceforge.net/DTD/sodipodi-0.html"
   xmlns:inkscape="http://www.inkscape.org/namespaces/inkscape"
   version="1.1"
   x="0px"
   y="0px"
   width="150"
   height="100.656"
   viewBox="0 0 150 100.656"
   xml:space="preserve"
   id="svg2"
   inkscape:version="0.48.4 r9939"
   sodipodi:docname="ico_kontakt_info.svg"><metadata
   id="metadata32"><rdf:RDF><cc:Work
       rdf:about=""><dc:format>image/svg+xml</dc:format><dc:type
         rdf:resource="http://purl.org/dc/dcmitype/StillImage" /></cc:Work></rdf:RDF></metadata><defs
   id="defs30" /><sodipodi:namedview
   pagecolor="#ffffff"
   bordercolor="#666666"
   borderopacity="1"
   objecttolerance="10"
   gridtolerance="10"
   guidetolerance="10"
   inkscape:pageopacity="0"
   inkscape:pageshadow="2"
   inkscape:window-width="825"
   inkscape:window-height="628"
   id="namedview28"
   showgrid="false"
   fit-margin-top="0"
   fit-margin-left="0"
   fit-margin-right="0"
   fit-margin-bottom="0"
   inkscape:zoom="1.1108108"
   inkscape:cx="-172.30194"
   inkscape:cy="34.484"
   inkscape:window-x="1861"
   inkscape:window-y="115"
   inkscape:window-maximized="0"
   inkscape:current-layer="svg2" />
<g
   id="ico_x5F_kontakt_x5F_info"
   transform="translate(-109.664,-41)">
	<g
   id="g5">
		<g
   id="g7">
			<g
   id="g9">
				<path
   style="fill:none;stroke:#df3536;stroke-width:3;stroke-miterlimit:10"
   d="m 210.869,72.581 c 0,1.856 -1.299,3.34 -3.463,3.34 -1.98,0 -3.279,-1.483 -3.279,-3.34 0,-1.855 1.361,-3.401 3.402,-3.401 1.979,0 3.34,1.484 3.34,3.401 z m -6.062,38.347 V 80.993 h 5.443 v 29.935 h -5.443 z"
   id="path11"
   inkscape:connector-curvature="0" />
			</g>
			<path
   style="fill:none;stroke:#2a2766;stroke-width:3;stroke-miterlimit:10"
   d="m 207.5,42.5 c 26.967,0 48.828,21.86 48.828,48.827 0,26.968 -21.861,48.829 -48.83,48.829 -26.965,0 -48.827,-21.86 -48.827,-48.827"
   id="path13"
   inkscape:connector-curvature="0" />
			<path
   style="fill:none;stroke:#2a2766;stroke-width:3;stroke-miterlimit:10"
   d="m 232.184,116.014 c -13.631,13.633 -35.733,13.631 -49.368,-0.002"
   id="path15"
   inkscape:connector-curvature="0" />
			<path
   style="fill:none;stroke:#2a2766;stroke-width:3;stroke-miterlimit:10"
   d="M 182.815,66.643 C 196.447,53.01 218.551,53.01 232.184,66.644"
   id="path17"
   inkscape:connector-curvature="0" />
			
				<line
   style="fill:none;stroke:#df3536;stroke-width:3;stroke-miterlimit:10"
   x1="145.048"
   y1="51.991001"
   x2="168.63"
   y2="51.991001"
   id="line19" />
			<line
   style="fill:none;stroke:#df3536;stroke-width:3;stroke-miterlimit:10"
   x1="113"
   y1="66.956001"
   x2="148.47501"
   y2="66.956001"
   id="line21" />
			
				<line
   style="fill:none;stroke:#df3536;stroke-width:3;stroke-miterlimit:10"
   x1="127.838"
   y1="81.990997"
   x2="146.618"
   y2="81.990997"
   id="line23" />
			
				<line
   style="fill:none;stroke:#df3536;stroke-width:3;stroke-miterlimit:10"
   x1="143.235"
   y1="95.990997"
   x2="148.47501"
   y2="95.990997"
   id="line25" />
		</g>
	</g>
</g>
<g
   id="Warstwa_1"
   transform="translate(-113.336,-23.827998)">
</g>
</svg>